<?xml version="1.0" encoding="utf-8"?>
<!-- Generator: Adobe Illustrator 16.0.0, SVG Export Plug-In . SVG Version: 6.00 Build 0)  -->
<!DOCTYPE svg PUBLIC "-//W3C//DTD SVG 1.1//EN" "http://www.w3.org/Graphics/SVG/1.1/DTD/svg11.dtd">
<svg version="1.1" id="Layer_1" xmlns="http://www.w3.org/2000/svg" xmlns:xlink="http://www.w3.org/1999/xlink" x="0px" y="0px"
	 width="100px" height="100px" viewBox="0 0 100 100" enable-background="new 0 0 100 100" xml:space="preserve">
<g>
	<g>
		<path fill="#064F88" d="M68.275,20.54c-0.816-0.34-1.699-0.136-2.506,0.118c-3.427,1.066-6.858,2.127-10.294,3.166
			c-0.679,0.211-1.427,0.458-1.813,1.107c-0.608,0.9-0.384,2.062,0.008,3c1.312,3.285,2.543,6.605,3.861,9.887
			c0.458,1.287,1.948,2.054,3.265,1.733c3.644-0.816,7.279-1.67,10.916-2.526c1.416-0.244,2.348-1.784,1.859-3.153
			c-1.097-3.706-2.267-7.393-3.39-11.09C69.934,21.798,69.284,20.858,68.275,20.54z"/>
		<path fill="#064F88" d="M49.188,26.187c-0.785-0.24-1.581,0.061-2.333,0.288c-2.798,0.885-5.612,1.718-8.418,2.585
			c-0.628,0.178-1.331,0.482-1.535,1.174c-0.396,0.921,0.075,1.886,0.465,2.72c1.401,2.892,2.731,5.821,4.127,8.714
			c0.532,1.207,1.925,1.947,3.218,1.595c2.849-0.616,5.672-1.323,8.516-1.946c0.81-0.178,1.786-0.423,2.091-1.31
			c0.385-0.85-0.066-1.737-0.353-2.54c-1.244-3.061-2.46-6.136-3.683-9.2C50.943,27.302,50.195,26.461,49.188,26.187z"/>
		<path fill="#064F88" d="M74.247,39.484c-0.888-0.434-1.877-0.149-2.791,0.038c-3.303,0.764-6.618,1.442-9.92,2.209
			c-1.29,0.197-1.97,1.725-1.388,2.865c1.144,2.944,2.266,5.903,3.442,8.839c0.474,1.221,1.892,1.775,3.124,1.551
			c3.093-0.455,6.175-0.986,9.268-1.449c0.905-0.154,1.983-0.234,2.549-1.063c0.562-0.73,0.264-1.689,0.02-2.48
			c-0.907-2.855-1.77-5.729-2.645-8.593C75.688,40.543,75.097,39.788,74.247,39.484z"/>
	</g>
	<g>
		<path fill="#044F89" d="M35.014,32.647c-0.553-1.106-1.827-1.907-3.078-1.565c-2.343,0.645-4.646,1.449-6.986,2.111
			c0.768,2.608,2.288,4.882,3.73,7.15c1.198,1.839,2.511,3.607,3.953,5.257c1.551-0.422,3.147-0.622,4.749-0.687
			c0.855-0.124,2.032-0.21,2.343-1.177c0.311-0.868-0.182-1.722-0.543-2.487C37.764,38.393,36.43,35.499,35.014,32.647z"/>
	</g>
	<g>
		<path fill="#243C7B" d="M24.95,33.193c-0.75,0.286-1.688,0.343-2.207,1.035c-0.576,1.085,0.168,2.205,0.671,3.146
			c1.42,2.545,2.787,5.115,4.201,7.664c0.563,1.105,1.88,1.821,3.103,1.471c2.223-0.526,4.466-0.98,6.663-1.596
			c-1.602,0.065-3.197,0.265-4.749,0.687c-1.442-1.65-2.754-3.418-3.953-5.257C27.238,38.075,25.718,35.801,24.95,33.193z"/>
	</g>
	<g>
		<path fill="#F58520" d="M19.294,35.273c-0.721-0.192-1.443,0.125-2.135,0.307c-1.879,0.61-3.778,1.162-5.669,1.753
			c-0.502,0.182-1.282,0.355-1.278,1.039c-0.146,1.013,0.51,1.862,0.997,2.673c1.468,2.284,2.814,4.64,4.277,6.918
			c0.553,0.862,1.516,1.625,2.598,1.427c2.111-0.389,4.179-0.975,6.281-1.4c0.663-0.212,1.626-0.252,1.854-1.045
			c0.196-0.787-0.228-1.531-0.592-2.195c-1.44-2.531-2.833-5.088-4.252-7.633C20.93,36.285,20.252,35.503,19.294,35.273z"/>
		<path fill="#F58520" d="M83.366,69.211c-1.343-0.322-2.734,0-4.088,0.086c-2.411,0.26-4.838,0.385-7.238,0.688
			c-0.773,0.063-1.662,0.758-1.365,1.617c0.738,2.299,1.727,4.518,2.565,6.787c0.407,1.25,1.831,1.73,3.032,1.617
			c2.985-0.158,5.972-0.291,8.958-0.443c0.799-0.035,1.923-0.375,1.893-1.357c-0.244-1.404-0.745-2.75-1.231-4.08
			c-0.046,0.455-0.122,0.906-0.183,1.365c-3.297-0.414-6.583-0.953-9.777-1.867c-1.644-0.496-3.409-0.775-4.849-1.76
			c-0.005-0.354,0.027-0.699,0.1-1.037c1.322-0.637,2.828-0.586,4.25-0.73c2.167-0.129,4.314-0.498,6.486-0.555
			c0.768,0.025,1.796,0.01,2.213,0.789c0.58,1.193,1.048,2.449,1.688,3.619C85.259,72.318,85.314,69.867,83.366,69.211z"/>
	</g>
	<g>
		<g>
			<path fill="#3559A7" d="M59.767,52.387c0.264,0.672,0.617,1.332,0.677,2.059c-0.164,0.699-1.002,0.664-1.564,0.811
				c-2.749,0.402-5.482,0.941-8.237,1.309c-0.989,0.234-1.486-0.775-1.814-1.516c-1.228-2.74-2.584-5.423-3.743-8.196
				c0.634-0.549,1.449-0.773,2.254-0.915c2.54-0.495,5.054-1.11,7.592-1.611c0.709-0.215,1.557,0.017,1.832,0.755
				C57.838,47.487,58.727,49.968,59.767,52.387z M53.376,45.085c-2.568,0.601-5.162,1.137-7.748,1.679
				c0.661,2.053,1.735,3.93,2.597,5.904c0.498,1.037,0.889,2.131,1.528,3.084c0.353,0.613,1.146,0.26,1.702,0.27
				c2.86-0.5,5.736-0.92,8.589-1.457c-0.721-2.4-1.847-4.652-2.714-7.003c-0.418-0.971-0.692-2.068-1.464-2.838
				C55.026,44.714,54.2,44.907,53.376,45.085z"/>
		</g>
		<g>
			<path fill="#3559A7" d="M63.344,61.219c0.772,2.176,1.902,4.227,2.472,6.467c-0.354,0.578-1.082,0.477-1.659,0.584
				c-2.539,0.225-5.073,0.539-7.614,0.758c-0.622,0.133-1.261-0.193-1.522-0.775c-0.872-1.686-1.591-3.451-2.433-5.154
				c-0.375-0.867-0.908-1.695-1.006-2.646c0.31-0.418,0.893-0.418,1.353-0.527c2.414-0.348,4.832-0.684,7.24-1.061
				c0.622-0.045,1.295-0.268,1.881,0.031C62.827,59.4,62.957,60.441,63.344,61.219z M59.175,59.459
				c-2.401,0.41-4.832,0.635-7.218,1.15c0.543,1.18,0.896,2.623,2.117,3.301c2.061,1.271,4.186,2.434,6.314,3.582
				c1.522,0.939,3.351,0.295,4.992,0.166c-0.497-1.49-1.088-2.945-1.698-4.389c-0.57-1.334-0.943-2.773-1.783-3.979
				C60.992,59.115,60.075,59.332,59.175,59.459z"/>
		</g>
	</g>
	<g>
		<path fill="#5D7FBE" d="M55.866,44.723c-0.84-0.009-1.666,0.185-2.49,0.362c-2.568,0.601-5.162,1.137-7.748,1.679
			c0.661,2.053,1.735,3.93,2.597,5.904c0.498,1.037,0.889,2.131,1.528,3.084c0.353,0.613,1.146,0.26,1.702,0.27
			c2.86-0.5,5.736-0.92,8.589-1.457c-0.721-2.4-1.847-4.652-2.714-7.003C56.912,46.59,56.638,45.493,55.866,44.723z"/>
		<path fill="#5D7FBE" d="M61.899,59.291c-0.907-0.176-1.824,0.041-2.725,0.168c-2.401,0.41-4.832,0.635-7.218,1.15
			c0.543,1.18,0.896,2.623,2.117,3.301c2.061,1.271,4.186,2.434,6.314,3.582c1.522,0.939,3.351,0.295,4.992,0.166
			c-0.497-1.49-1.088-2.945-1.698-4.389C63.112,61.936,62.739,60.496,61.899,59.291z"/>
	</g>
	<g>
		<g>
			<path fill="#3559A7" d="M45.049,55.529c0.299,0.572,0.472,1.205,0.504,1.854c-2.785,0.51-5.586,0.967-8.391,1.389
				c-0.707,0.186-1.33-0.328-1.62-0.93c-1.108-1.984-2.145-4.012-3.261-5.998c-0.416-0.758-0.901-1.557-0.842-2.458
				c2.343-0.542,4.71-1.018,7.056-1.545c0.752-0.146,1.511-0.363,2.275-0.276c0.665,0.389,0.935,1.152,1.278,1.796
				C43.029,51.426,44.036,53.477,45.049,55.529z M35.705,48.954c1.516,1.917,3.407,3.489,5.192,5.147
				c1.354,1.145,2.569,2.525,4.272,3.16c-0.646-2.117-1.796-4.018-2.712-6.02c-0.543-1.093-0.972-2.271-1.752-3.223
				C38.996,47.987,37.357,48.599,35.705,48.954z"/>
		</g>
		<path fill="#3559A7" d="M28.881,52.281c-0.472-0.732-0.828-1.946-1.885-1.908c-2.011,0.279-3.965,0.863-5.966,1.222
			c-0.616,0.172-1.348,0.176-1.832,0.66c0.32,1.154,1.095,2.1,1.684,3.123c1.038,1.617,1.932,3.332,3.046,4.895
			c0.489,0.67,1.39,0.441,2.08,0.346c2.213-0.41,4.446-0.678,6.639-1.16C31.733,56.902,30.089,54.695,28.881,52.281z"/>
		<path fill="#3559A7" d="M67.406,71.635c-1.294-0.699-2.847-0.014-4.247-0.045c-2.038,0.346-4.245,0.012-6.167,0.867
			c0.973,2.201,1.994,4.379,3.024,6.557c0.232,0.607,0.779,1.08,1.47,0.984c2.765-0.119,5.536-0.236,8.291-0.451
			c1.213-0.025,0.412-1.332,0.21-1.975C69.075,75.615,68.509,73.486,67.406,71.635z"/>
	</g>
	<g>
		<path fill="#5E7DBD" d="M40.706,48.019c-1.71-0.032-3.349,0.58-5.001,0.935c1.516,1.917,3.407,3.489,5.192,5.147
			c1.354,1.145,2.569,2.525,4.272,3.16c-0.646-2.117-1.796-4.018-2.712-6.02C41.915,50.149,41.486,48.972,40.706,48.019z"/>
	</g>
	<g>
		<path fill="#00508A" d="M79.467,55.621c-0.651-0.338-1.409-0.395-2.129-0.273c-3.189,0.469-6.375,0.957-9.565,1.422
			c-0.835,0.084-1.815,0.391-2.063,1.303c-0.119,1.051,0.472,1.977,0.794,2.93c0.796,1.973,1.495,3.977,2.324,5.932
			c0.518,1.244,2.032,1.564,3.237,1.387c3.169-0.33,6.344-0.59,9.502-0.961c0.952-0.047,2.01-0.926,1.669-1.953
			c-0.636-2.432-1.485-4.809-2.172-7.225C80.776,57.213,80.507,56.051,79.467,55.621z"/>
	</g>
	<g>
		<path fill="#FAAC1B" d="M84.132,70.33c-0.417-0.779-1.445-0.764-2.213-0.789c-2.172,0.057-4.319,0.426-6.486,0.555
			c-1.422,0.145-2.928,0.094-4.25,0.73c-0.072,0.338-0.104,0.684-0.1,1.037c1.439,0.984,3.205,1.264,4.849,1.76
			c3.194,0.914,6.48,1.453,9.777,1.867c0.061-0.459,0.137-0.91,0.183-1.365c-0.018-0.043-0.053-0.129-0.071-0.176
			C85.18,72.779,84.712,71.523,84.132,70.33z"/>
	</g>
</g>
</svg>
