<?xml version="1.0" encoding="utf-8"?>
<!-- Generator: Adobe Illustrator 16.0.0, SVG Export Plug-In . SVG Version: 6.00 Build 0)  -->
<!DOCTYPE svg PUBLIC "-//W3C//DTD SVG 1.1//EN" "http://www.w3.org/Graphics/SVG/1.1/DTD/svg11.dtd">
<svg version="1.1" id="Layer_1" xmlns="http://www.w3.org/2000/svg" xmlns:xlink="http://www.w3.org/1999/xlink" x="0px" y="0px"
	 width="100px" height="100px" viewBox="0 0 100 100" enable-background="new 0 0 100 100" xml:space="preserve">
<g>
	<radialGradient id="SVGID_1_" cx="39.0015" cy="28.5283" r="52.4907" gradientUnits="userSpaceOnUse">
		<stop  offset="0.3273" style="stop-color:#EC1C24"/>
		<stop  offset="0.355" style="stop-color:#E31B23"/>
		<stop  offset="0.5078" style="stop-color:#B81620"/>
		<stop  offset="0.6269" style="stop-color:#9D121E"/>
		<stop  offset="0.697" style="stop-color:#93111D"/>
		<stop  offset="0.9818" style="stop-color:#6E0008"/>
	</radialGradient>
	<path fill="url(#SVGID_1_)" d="M39.391,82.046c-1.905,0.008-3.803-0.163-5.668-0.522c-1.871-0.355-3.717-0.857-5.492-1.562
		c-3.559-1.383-6.869-3.447-9.721-6.062c-2.844-2.62-5.239-5.789-6.956-9.352c-1.728-3.551-2.785-7.488-3.029-11.527
		c-0.247-4.033,0.286-8.185,1.661-12.1c1.369-3.914,3.562-7.58,6.429-10.678C19.474,27.142,23,24.617,26.913,22.9
		c1.963-0.847,4.008-1.514,6.103-1.951c2.101-0.422,4.241-0.644,6.375-0.656c2.14,0.007,4.277,0.23,6.375,0.654
		c2.098,0.425,4.143,1.101,6.103,1.949c3.916,1.705,7.45,4.229,10.311,7.334c2.872,3.094,5.065,6.764,6.44,10.682
		c1.374,3.921,1.907,8.058,1.657,12.117c-0.244,4.019-1.299,7.979-3.037,11.524c-1.723,3.563-4.118,6.731-6.965,9.352
		c-2.855,2.608-6.164,4.676-9.729,6.056c-1.77,0.704-3.618,1.209-5.481,1.562C43.194,81.883,41.29,82.054,39.391,82.046z
		 M39.391,82.046c1.899-0.015,3.8-0.211,5.657-0.589c1.862-0.382,3.666-0.985,5.402-1.739c3.462-1.523,6.58-3.772,9.104-6.535
		c2.521-2.755,4.445-6.02,5.629-9.48c1.184-3.473,1.619-7.113,1.372-10.697c-0.247-3.534-1.212-7.001-2.749-10.096
		c-1.542-3.106-3.654-5.869-6.159-8.144c-2.517-2.275-5.413-4.062-8.521-5.262c-3.102-1.195-6.409-1.819-9.735-1.806
		c-1.664-0.011-3.324,0.139-4.954,0.449c-1.626,0.303-3.239,0.739-4.788,1.352c-3.113,1.193-6.019,2.979-8.529,5.256
		c-5.029,4.53-8.44,11.111-8.911,18.268c-0.247,3.563,0.191,7.217,1.375,10.684c1.189,3.464,3.113,6.729,5.643,9.482
		c2.519,2.761,5.638,5.01,9.104,6.533c1.736,0.751,3.545,1.354,5.402,1.736C35.59,81.835,37.486,82.031,39.391,82.046z"/>
	<radialGradient id="SVGID_2_" cx="39.5039" cy="43.583" r="62.9037" gradientUnits="userSpaceOnUse">
		<stop  offset="0.0364" style="stop-color:#FFFFFF"/>
		<stop  offset="0.2242" style="stop-color:#C4C4C6"/>
		<stop  offset="0.5212" style="stop-color:#575758"/>
		<stop  offset="0.703" style="stop-color:#B6B9BD"/>
		<stop  offset="0.8217" style="stop-color:#B3B7BC"/>
		<stop  offset="0.9012" style="stop-color:#B3B7BC"/>
	</radialGradient>
	<path fill="url(#SVGID_2_)" d="M63.835,57.504c0,13.493-10.941,24.43-24.436,24.43c-13.497,0-24.43-10.937-24.43-24.43
		c0-13.494,10.933-24.433,24.43-24.433C52.894,33.071,63.835,44.01,63.835,57.504z"/>
	<g opacity="0.3">
		<g>
			<path fill="#231F20" d="M61.024,58.488l-0.051-0.144l-0.039-0.117l0.006-0.219l-0.067-0.157l-0.014-0.118l-0.037-0.129
				l-0.033-0.112l-0.039-0.081l-0.082-0.087l-0.087-0.096l-0.039-0.067l-0.126-0.073l-0.079-0.033l-0.123-0.07l-0.096-0.05
				l-0.081-0.096l-0.059-0.059l-0.076-0.109l-0.078-0.06l-0.099-0.07l-0.036-0.098v-0.093c0,0-0.012-0.036-0.028-0.081
				c-0.006-0.054-0.045-0.157-0.045-0.157v-0.099v-0.081l-0.011-0.159v-0.259v-0.098v-0.079l0.025-0.148l0.059-0.07l0.036-0.117
				l0.045-0.048l0.054-0.087l0.09-0.034l0.109-0.059l0.036-0.039l0.059,0.109l-0.02,0.117l0.006,0.063l0.135,0.033l0.056-0.056
				l-0.081-0.135L60.2,54.735c0,0,0-0.054,0.014-0.093s0.048-0.12,0.048-0.12l0.062-0.06l0.033-0.12l0.022-0.144l0.107-0.048
				l-0.021-0.117l0.021-0.118l-0.07-0.087c0.05-0.025,0.07-0.106,0.07-0.106l0.011-0.141h0.123c0,0,0,0,0-0.039
				c0-0.033,0-0.165,0-0.165l0.063-0.06l0.081-0.111l0.051-0.13l-0.018-0.129l-0.008-0.135v-0.162V52.52l0.008-0.148v-0.129
				l-0.024-0.107l0.042-0.14l-0.025-0.174l-0.062-0.141l0.011-0.096l-0.011-0.117l-0.025-0.109l-0.02-0.096l-0.051-0.096
				l-0.084-0.069v-0.112v-0.129v-0.07l-0.037-0.205l-0.045-0.14l-0.036-0.135l-0.014-0.129l-0.045-0.124l-0.062-0.092l-0.048-0.084
				l-0.012-0.082l-0.011-0.124L60.2,49.625l-0.067-0.07l-0.096-0.025l-0.051,0.059l-0.033-0.022c0,0-0.039-0.045-0.039-0.082
				c0-0.036,0-0.193,0-0.193l-0.031-0.106L59.841,49.1c0,0,0-0.034-0.045-0.034s-0.096,0-0.096,0l-0.084-0.014l-0.036-0.048
				c0,0,0-0.022,0.025-0.059c0.025-0.035,0.05-0.083,0.05-0.083s0-0.06-0.05-0.083c-0.051-0.025-0.129-0.086-0.129-0.086
				l-0.085-0.084l-0.072-0.07l-0.082-0.098l-0.095-0.083l-0.076-0.048h-0.096c0,0-0.011,0.016-0.08,0
				c-0.07-0.011-0.191-0.057-0.191-0.057l-0.037-0.218v-0.13l-0.033-0.105l-0.087-0.112l0.015-0.105l-0.015-0.132l-0.014-0.082
				v-0.195l0.039-0.103l-0.011-0.06l-0.051-0.073l-0.033,0.022l-0.045,0.061c0,0-0.063,0-0.102,0c-0.033,0-0.096,0.024-0.096,0.024
				l0.025,0.179c0,0,0,0.084,0,0.154c0,0.072,0,0.143,0,0.143l-0.07-0.011l-0.12-0.071l-0.081-0.061h-0.051h-0.072l-0.06-0.034
				l-0.06-0.059l-0.069-0.075l-0.015-0.181c0,0,0.015-0.058,0.015-0.118c0-0.059,0-0.12,0-0.12l-0.036-0.085
				c0,0-0.045-0.02-0.045-0.055c0-0.038,0-0.168,0-0.206c0-0.032,0-0.109,0-0.109l-0.031-0.056l-0.053-0.097l-0.018-0.095v-0.097
				v-0.141l0.183,0.01l0.02,0.131c0,0,0.025-0.011,0.025,0.06c0,0.074,0.036,0.142,0.036,0.142s0.033,0.014,0.033,0.076
				c0,0.059,0.015,0.145,0.015,0.145l0.124,0.021c0,0-0.018-0.021,0-0.081c0.008-0.065,0.033-0.17,0.033-0.17l-0.051-0.119
				L57.9,45.935l0.059-0.101l0.059-0.073c0,0-0.027-0.088,0.022-0.088c0.045,0,0.085,0.025,0.085,0.025l0.061,0.136
				c0,0,0.084,0.031,0.096,0.069c0.012,0.032,0.022,0.119,0.022,0.119l0.034,0.117l0.072,0.097l0.157-0.024l0.036-0.059l0.166,0.045
				c0,0,0.039,0.135,0.039,0.171c0,0.035,0.129,0.129,0.129,0.129s0.06,0.094,0.106,0.108c0.048,0.013,0.129,0.058,0.129,0.095
				c0,0.034,0.04,0.109,0.04,0.109l0.084,0.166c0,0,0.106,0.048,0.106,0.013s0.011-0.084,0.011-0.121c0-0.034,0-0.133,0-0.133
				l-0.011-0.201l-0.039-0.095l-0.067-0.098l-0.051-0.056l-0.073-0.109l-0.056-0.083l-0.073-0.097l-0.073-0.061l-0.069-0.08
				l-0.093-0.108l-0.062-0.062l-0.106-0.021l-0.112-0.062l-0.09-0.06l-0.101-0.01H58.23l-0.033-0.181l-0.062-0.071l-0.106-0.143
				l-0.012-0.13l-0.033-0.166l-0.123-0.1v-0.118l-0.079-0.096l-0.09-0.095l-0.034-0.121l-0.066-0.106l-0.076-0.108l-0.037-0.048
				l-0.045-0.074l-0.014-0.105l-0.045-0.085L57.3,43.692l-0.081-0.109l0.14-0.021h0.109c0,0-0.011-0.049-0.022-0.083
				c-0.012-0.037-0.07-0.168-0.07-0.168l-0.086-0.132l-0.154-0.238l-0.07-0.084l-0.073-0.132l-0.095-0.142l-0.107-0.132
				l-0.168-0.229l-0.063-0.129l-0.285-0.251l-0.099-0.109l-0.054-0.105l-0.061-0.061l-0.107-0.122l-0.16-0.155l-0.069-0.07
				l-0.085-0.105l-0.056-0.061l-0.168-0.169l-0.225-0.118l-0.196-0.156l-0.162-0.109l-0.109-0.116l-0.184-0.192l-0.15-0.104
				l-0.135-0.026l-0.129-0.035l-0.096-0.097l-0.084-0.048l-0.104,0.048l-0.018,0.062l0.063,0.022l0.047,0.038v0.153l-0.078,0.022
				c0,0,0.006-0.01-0.045-0.01c-0.045,0-0.151,0.035-0.151,0.035l-0.241-0.13l-0.129-0.145l-0.096-0.108l-0.201-0.226l-0.178-0.157
				l-0.232-0.226l-0.151-0.17l-0.135-0.118l-0.144-0.096l-0.165-0.167l-0.095-0.105l-0.057-0.121l-0.051-0.121l-0.051-0.106
				l-0.069-0.13l-0.06-0.135l-0.072-0.082l-0.084-0.071l-0.09-0.106v-0.119l-0.014-0.135l-0.029-0.058l-0.095-0.048l-0.104-0.06
				l-0.111-0.035l-0.151-0.07l-0.096-0.096l-0.106-0.039l-0.171-0.07c0,0-0.02-0.038-0.093-0.07
				c-0.067-0.041-0.208-0.121-0.208-0.121l-0.118-0.157l-0.045-0.048l-0.096-0.083l0.037-0.013l-0.025-0.045l-0.056-0.073
				l-0.101-0.098l-0.191-0.093l-0.07-0.073l0.236,0.05l0.191,0.14l0.171,0.073l0.222,0.118l0.137,0.037l0.084,0.081l0.141,0.061
				c0,0,0.135,0.109,0.168,0.109c0.039,0,0.286,0.166,0.286,0.166l0.309,0.192l0.171,0.108c0,0,0.141,0.061,0.172,0.108
				c0.02,0.048,0.126,0.105,0.126,0.105l0.129,0.049l0.075,0.086l0.191,0.095l0.319,0.094l0.216,0.118c0,0,0.096,0.047,0.144,0.071
				c0.048,0.027,0.143,0.061,0.143,0.061l0.171,0.049l0.127,0.025l-0.07-0.122l-0.202-0.106l-0.146-0.096l-0.118-0.07l-0.109-0.111
				l-0.165-0.083l-0.18-0.083l-0.109-0.108c0,0-0.067-0.059-0.104-0.07c-0.039-0.013-0.124-0.06-0.124-0.06l-0.093-0.096
				l-0.182-0.07c0,0-0.082-0.04-0.115-0.061c-0.037-0.026-0.121-0.073-0.121-0.073l-0.131-0.037l-0.191-0.105l-0.19-0.025
				l-0.177-0.071l-0.121-0.086l-0.238-0.127l-0.168-0.06l-0.241-0.143l-0.213-0.112l-0.168-0.153l-0.188-0.105l-0.255-0.11
				l-0.118-0.094l-0.143-0.069l-0.27-0.112l-0.221-0.07l-0.213-0.095l-0.168-0.097l-0.154-0.08l-0.216-0.096l-0.118-0.098
				l-0.124-0.047c0,0-0.118,0-0.151,0c-0.037,0-0.062-0.025-0.106,0c-0.051,0.025-0.073,0.059-0.073,0.059l-0.168-0.059l-0.107-0.07
				l-0.19-0.06l-0.227-0.035l-0.109,0.011L46.269,34.7l-0.109-0.143l-0.129-0.117l-0.129-0.074H45.78h-0.064l-0.188-0.059
				l-0.143-0.021h-0.101v0.08l0.225,0.013c0,0,0.14-0.013,0.126,0.038c-0.011,0.043-0.011,0.175-0.011,0.175s0.048,0.072,0.048,0.13
				c0,0.062,0.059,0.146,0.059,0.146s0.121,0.024,0.121,0.059s0.095,0.118,0.095,0.118l0.056,0.061l0.076,0.049l0.059,0.061
				l0.106,0.071h0.191l0.179,0.024l0.109,0.048l0.034,0.153c0,0,0.07,0.047,0.07,0.112c0,0.056,0.101,0.093,0.101,0.093l0.126,0.098
				l0.084,0.092c0,0,0.028,0.07-0.047,0.07c-0.067,0-0.191,0-0.191,0l-0.073,0.014v0.179c0,0,0.073,0.07,0.106,0.097
				c0.039,0.022,0.168,0.057,0.168,0.057l-0.011,0.168l-0.163,0.035l-0.017,0.094l-0.118-0.059l-0.051,0.01l-0.031,0.147
				c0,0-0.025,0.073-0.025,0.105c0,0.038,0.044,0.23,0.044,0.23l0.087,0.013l0.165,0.057l0.154,0.121l0.132,0.035l0.121,0.13
				l-0.154,0.119l-0.022,0.156l0.034,0.085l0.18,0.034l0.062,0.096l-0.036,0.07h-0.194l-0.157,0.014l-0.154-0.048l-0.154-0.106
				l-0.191-0.037l-0.168-0.022l-0.009,0.105l-0.132,0.024c0,0-0.011,0.047-0.011,0.084s0.056,0.07,0.056,0.07l0.07,0.039
				l0.017,0.095l-0.042,0.202h-0.101l-0.146-0.013l-0.096,0.013l-0.087,0.121l0.042,0.095h-0.089l-0.056,0.058
				c0,0-0.07,0.108-0.07,0.145c0,0.035,0,0.153,0,0.153s0.045,0.073,0.014,0.108c-0.04,0.035-0.084,0.035-0.084,0.035l-0.101-0.083
				l-0.022-0.19l-0.073-0.14l-0.084-0.098l-0.045-0.097l-0.047-0.068l-0.037-0.097l-0.095-0.047l-0.168-0.013l-0.067-0.074h-0.05
				l-0.096-0.022h-0.157l-0.084,0.085v0.143l-0.047,0.011l-0.048-0.048l-0.095-0.035l-0.129,0.061l-0.084-0.061l-0.062-0.036
				l-0.096,0.024l-0.059,0.109l0.095,0.094c0,0,0.109,0.011,0.146,0.06c0.031,0.045,0.059,0.191,0.059,0.191l-0.076,0.106
				l-0.042,0.108h-0.101l-0.081,0.083l-0.011,0.108l-0.084,0.073l-0.037,0.189l-0.084,0.205l0.109,0.095l0.106,0.083l-0.025,0.156
				l-0.132,0.024l-0.095,0.05l-0.115,0.045v0.083c0,0,0.07,0.013,0.07,0.047c0,0.038,0.045,0.073,0.045,0.073l0.082,0.035
				l0.101,0.06c0,0,0.022,0.035,0.079,0.035c0.067,0,0.135,0.035,0.135,0.035l0.073,0.025h0.129c0,0,0.062,0.027,0.062,0.059
				c0,0.038,0.022,0.121,0.022,0.121l0.134,0.035l0.045,0.071l0.062,0.096l-0.011,0.108c0,0-0.025,0.013-0.062,0.013
				c-0.034,0-0.05-0.022-0.084-0.022c-0.037,0-0.101-0.051-0.101-0.051l-0.09-0.143l-0.056-0.084l-0.084-0.122h-0.132l-0.146-0.021
				l-0.177-0.011l-0.107,0.011l0.011,0.143l0.07,0.025l-0.062,0.059l0.121,0.024l0.067,0.052l0.028,0.056h-0.146h-0.129h-0.087
				l-0.082-0.095l-0.034-0.07l-0.106-0.084l-0.022,0.106l-0.028,0.107c0,0,0.028,0.085,0.036,0.121
				c0.014,0.035,0.154,0.105,0.154,0.105l0.062,0.048v0.134l0.056,0.048l0.039,0.143l0.098,0.095l0.079,0.035l0.121,0.013
				l0.121-0.063l0.14,0.015l0.124,0.035h0.143l0.017,0.07l0.04,0.07l0.062,0.061l-0.011,0.1l0.118,0.01l0.157,0.01l-0.098,0.084
				l-0.202,0.014l-0.07-0.048l-0.051-0.098l-0.044-0.071l-0.059-0.082l-0.059-0.013l-0.112-0.024l-0.081,0.024l-0.025,0.084
				l0.025,0.07l0.05,0.109l0.008,0.107l0.051,0.216l-0.028,0.19l-0.031,0.118l-0.132,0.036l-0.146,0.024l-0.152,0.024l-0.014-0.095
				l0.095-0.07l0.034-0.059l0.076-0.168v-0.121v-0.106l-0.039-0.108l-0.062-0.105h-0.079l-0.073-0.073L43.45,41.7l-0.062-0.097
				l-0.104-0.13l-0.07-0.143l-0.087-0.143l-0.062-0.071l-0.093-0.1v-0.094l-0.034-0.097l-0.084-0.092l-0.087-0.048h-0.132
				l-0.106,0.01l-0.048,0.073v0.143l0.048,0.072l-0.011,0.105l-0.022,0.087l-0.014,0.142l0.109,0.014l0.022,0.095l0.011,0.105
				c0,0,0,0.05,0.011,0.098c0.011,0.045,0.064,0.071,0.064,0.071l0.115,0.022l0.084,0.021l0.073,0.051l0.059,0.129l0.059,0.098
				l-0.059,0.132l-0.177-0.097l-0.121-0.07l-0.132-0.025l-0.154-0.057l-0.202-0.013l-0.182-0.016l-0.14-0.02l-0.106,0.008v0.083
				l0.056,0.052l0.025,0.129l-0.095,0.132L41.68,42.37l-0.02-0.074l-0.022-0.084l-0.101-0.037l-0.082,0.108l-0.131,0.013
				l-0.146,0.022l-0.056,0.081l-0.084,0.075h-0.107l-0.05-0.083l-0.008-0.084l-0.157-0.037v0.087l-0.059,0.042h-0.118l-0.095,0.017
				l-0.124,0.118l-0.188,0.13l-0.121,0.097l-0.036,0.156l-0.096,0.045l-0.121,0.025h-0.095l-0.07-0.061l-0.076-0.07l-0.02-0.073
				l0.02-0.047l0.051-0.025l0.134-0.022l0.02-0.084l-0.042-0.105l-0.098-0.059l-0.121-0.013h-0.056v0.106l-0.09,0.13l-0.011,0.072
				c0,0-0.034,0.083,0,0.121c0.036,0.036,0.112,0.084,0.112,0.084l-0.039,0.143l-0.022,0.201L39.245,43.3l-0.07-0.098l-0.095-0.073
				l-0.132,0.014L38.9,43.264l-0.118,0.047l-0.112,0.048l-0.07,0.13l0.109,0.094l0.048,0.12l-0.059,0.1l-0.143-0.017l-0.146-0.045
				l-0.143-0.048l-0.079-0.07l-0.089-0.083l-0.056,0.043v0.097l0.025,0.06l0.092,0.022c0,0,0,0.013,0,0.074
				c0,0.058,0.048,0.13-0.014,0.13c-0.059,0-0.163,0-0.163,0l-0.109-0.06l-0.109-0.061l-0.115-0.084v-0.13l-0.051-0.143l0.011-0.083
				l0.04-0.048v-0.083l-0.062-0.133l-0.073-0.046L37.433,43l-0.047-0.073v-0.108l0.011-0.058l0.106,0.048l0.121,0.061l0.048,0.047
				h0.092l0.109,0.13h0.109l0.07,0.059h0.045l0.109,0.022l0.081,0.025l0.146,0.013l0.084-0.013l0.132-0.025l0.059-0.045l0.048-0.061
				l0.081-0.083l-0.011-0.145l-0.036-0.132l-0.141-0.06l-0.154-0.07l-0.098-0.106l-0.143-0.109l-0.109-0.083l-0.104-0.083h-0.121
				l-0.157-0.025l-0.166-0.106l-0.073-0.098l-0.093-0.02l-0.171,0.01l-0.031-0.097l-0.025-0.073l0.056-0.021h0.112l0.059-0.013
				v-0.07l-0.059-0.072l-0.09-0.047l-0.067,0.047l-0.132,0.035L37.01,41.53l-0.045,0.06l-0.132-0.06l-0.115,0.121l-0.101-0.011
				l0.039-0.109l0.062-0.096l-0.146,0.022l-0.084,0.096l-0.073,0.098l-0.106-0.048l-0.034-0.022l-0.101,0.105l-0.151-0.07
				l-0.084,0.035L35.798,41.7H35.7c0,0-0.154-0.038-0.182,0.022c-0.022,0.061,0,0.082-0.022,0.121
				c-0.022,0.032-0.163,0.061-0.163,0.061l-0.121,0.104l-0.076-0.008l-0.163,0.118h-0.084c0,0-0.05,0.096-0.084,0.096
				c-0.037,0-0.132,0.011-0.132,0.011l-0.177,0.073l-0.101,0.104l-0.166,0.112c0,0-0.081,0-0.081,0.048
				c0,0.045-0.121,0.119-0.121,0.119l-0.146,0.083c0,0-0.115-0.036-0.126,0.022c-0.014,0.062-0.076,0.109-0.076,0.109H33.54
				l-0.182,0.048l-0.059,0.166l0.166,0.013l-0.056,0.071l-0.14,0.024l-0.101-0.047h-0.132h-0.238l-0.106,0.012l-0.034,0.097h-0.098
				l-0.14,0.059l-0.082,0.061l-0.076,0.071l-0.076-0.014h-0.07l-0.14,0.12l0.121,0.07h0.09l0.087,0.028l0.014,0.044l-0.121,0.025
				h-0.112l-0.112-0.025c0,0-0.048-0.035-0.062,0.013c-0.014,0.048-0.014,0.156-0.014,0.156l0.095,0.037l-0.081,0.083l-0.177,0.166
				l-0.062,0.157l-0.168,0.083l-0.037,0.085l0.025,0.083l0.059,0.074l0.014,0.104l0.073,0.062h0.141h0.084
				c0,0,0.062-0.014,0.098-0.014c0.031,0,0.115-0.068,0.115-0.068l0.07-0.062l0.194,0.01l0.073-0.105l0.056-0.132l0.05-0.082
				l0.056,0.045l-0.048,0.156l-0.034,0.13l-0.008,0.132l-0.028,0.038l-0.022,0.203l-0.048,0.093l-0.034,0.16l0.034,0.118
				l-0.064,0.143v0.105l-0.05,0.084l-0.076,0.122l-0.034,0.104l-0.017,0.097l0.025,0.046l0.132,0.036l0.132-0.011l0.05-0.108
				l0.056-0.06l0.062-0.07l0.062-0.011l0.118,0.034h0.118l0.107-0.056l0.025-0.087c0,0,0.07-0.043,0.121-0.083
				c0.045-0.036,0.082-0.108,0.09-0.155c0.017-0.046,0.056-0.129,0.056-0.129l0.067-0.085l0.014-0.132c0,0-0.062-0.046,0-0.071
				c0.059-0.024,0.126-0.024,0.126-0.024l0.157,0.013l0.022-0.048v-0.094L33.56,44.9l-0.044-0.049h0.14c0,0,0.062,0.013,0.101,0.025
				c0.036,0.01,0.067,0.01,0.067,0.01l0.146,0.014l0.045-0.106l-0.02-0.1l-0.042-0.095l-0.16-0.01c0,0,0,0,0.02-0.038
				c0.025-0.034,0.07-0.058,0.07-0.092c0-0.038,0.014-0.133,0.014-0.133l0.056-0.085l0.101-0.045c0,0,0-0.072,0.036-0.072
				c0.034,0,0.082-0.047,0.082-0.047v-0.122l0.059-0.117l0.121-0.014v-0.061l0.157-0.048l0.118-0.035c0,0,0.073-0.01,0.109-0.025
				c0.034-0.013,0.07-0.032,0.07-0.032h0.168l0.017-0.061l0.138-0.049l0.033-0.061l0.025-0.073l0.106-0.153l0.107-0.143l0.073-0.061
				l0.084-0.07l0.107-0.013h0.134l0.118,0.021l0.106,0.052l0.062,0.115L36.073,43.3l-0.084,0.07h-0.073l-0.073,0.037l-0.081,0.095
				l-0.109,0.07l-0.135,0.05l-0.104,0.07l-0.121,0.062l-0.098,0.056l-0.129,0.026l-0.081,0.105l-0.109,0.193l-0.011,0.189
				l-0.109,0.143l-0.011,0.143l0.039,0.122l0.126,0.092v0.133l0.065,0.048c0,0,0.017,0.013,0.092,0.013c0.07,0,0.129,0,0.171,0
				c0.036,0,0.14-0.038,0.14-0.038l0.118-0.035c0,0,0.135,0,0.168,0c0.036,0,0.084-0.011,0.118-0.011
				c0.039,0,0.208-0.011,0.208-0.011l0.045,0.058l0.084,0.038l0.025,0.057l0.092,0.013l0.109,0.07l-0.025,0.084h-0.236l-0.146,0.011
				l-0.062,0.083h-0.163l-0.05-0.031l-0.146-0.063l-0.056-0.037l-0.168,0.013h-0.176c0,0-0.065-0.025-0.065,0.013
				c0,0.037-0.143,0.074-0.143,0.074L34.9,45.412l-0.095,0.13c0,0,0.011,0.071,0.045,0.071c0.039,0,0.154,0.016,0.154,0.016
				l-0.07,0.118l-0.025,0.13l-0.078,0.107l-0.062,0.121H34.71l-0.073-0.013l-0.059-0.07l-0.037-0.062l-0.034-0.096l-0.039-0.06
				l-0.073-0.035l-0.056,0.064l-0.073,0.031l-0.05,0.109l-0.107,0.034l-0.095,0.18l-0.045,0.118l0.025,0.098l-0.062,0.13
				l-0.036,0.097l-0.073,0.095h-0.106l-0.062-0.035l-0.045-0.013l-0.084,0.084l-0.132,0.047l-0.126,0.011h-0.076l-0.037-0.071
				l-0.034-0.094l-0.106-0.05l-0.109,0.025l-0.132,0.013l-0.073,0.02l-0.205,0.028l-0.205,0.059l-0.151,0.036l-0.025,0.035
				l-0.14-0.095l0.008-0.156l-0.042-0.06h-0.076l-0.095-0.022l-0.143,0.034l-0.126-0.024l-0.124-0.037v-0.043l-0.011-0.112
				l-0.062-0.07l-0.008-0.167l0.02-0.143l0.101-0.091l0.095-0.1l0.14-0.049c0,0,0.096,0,0.146,0c0.045,0,0.067-0.056,0.067-0.056
				l-0.082-0.049l-0.036-0.047l0.022-0.073l0.062-0.022l0.109-0.099l0.008-0.031l0.025-0.087v-0.046l-0.143,0.011l-0.154,0.07
				h-0.166l-0.146,0.083l-0.011,0.158l-0.059,0.133l-0.076,0.105v0.121l-0.037,0.119l-0.025,0.131l-0.056,0.07l-0.033,0.118
				l-0.062,0.098l-0.084,0.013l-0.062,0.107h-0.056l-0.084-0.093L30.66,46.34h-0.084l-0.011,0.109l-0.107-0.011l-0.109-0.07
				L30.29,46.34h-0.096l-0.047,0.077c0,0-0.034,0.104-0.07,0.145c-0.034,0.029-0.121,0.116-0.121,0.116l-0.034-0.022v-0.094
				c0,0,0.008-0.074-0.025-0.064C29.86,46.51,29.79,46.57,29.79,46.57l-0.084,0.121l-0.037,0.08l-0.047,0.133l-0.045-0.011
				l-0.171-0.011l-0.034-0.025h-0.143H29.05l-0.129,0.011l-0.073,0.121l-0.101,0.121l-0.115,0.008h-0.121l-0.106,0.011l-0.04,0.098
				l-0.09,0.01l-0.123-0.022l-0.07-0.047l-0.048-0.083L28.012,47l-0.062,0.014l-0.014,0.081l-0.059,0.094l-0.048,0.133l-0.121,0.025
				l-0.079-0.059h-0.095l-0.025-0.122l-0.132-0.133l-0.151,0.014l-0.09,0.081l-0.022,0.133l0.037,0.109l0.045,0.07l0.087,0.118
				l0.056,0.121l0.028,0.135l-0.073,0.092c0,0-0.028,0.096-0.028,0.142c0,0.049,0.087,0.146,0.087,0.146l-0.087,0.166l-0.008,0.109
				l-0.014,0.142l-0.118,0.04l-0.095,0.105l-0.095,0.108l-0.104,0.153l-0.087,0.129l-0.177,0.087l-0.222-0.104l-0.09-0.084
				l-0.106-0.09l-0.095-0.069h-0.101l-0.115-0.095l-0.087-0.08l-0.104-0.05l-0.109-0.131l-0.048-0.06l-0.062-0.072l-0.082-0.025
				l-0.076,0.038h-0.115h-0.096l-0.022,0.105l-0.037,0.119l-0.048,0.095l-0.05,0.098l-0.093,0.14l-0.036,0.149l-0.157,0.126
				l-0.059,0.143l-0.143,0.143l-0.129,0.135l-0.168,0.154l-0.095,0.084l-0.014,0.151l0.034,0.048l0.028,0.098
				c0,0-0.062,0.04-0.07,0.084c-0.017,0.044-0.087,0.157-0.087,0.157l-0.166,0.165v0.132l0.056,0.022l0.095,0.084h0.157l0.109,0.025
				l0.025,0.168c0,0,0.008-0.014,0.008,0.082c0,0.095,0,0.165,0,0.165l0.025,0.135l0.081,0.059l0.157-0.011
				c0,0,0.048-0.017,0.084-0.017c0.037,0,0.188,0,0.188,0l0.084,0.062l0.101,0.05l0.106,0.022l0.084,0.06h0.067l0.084-0.025
				l0.095-0.045l0.157-0.123h0.121l0.115-0.07c0,0,0.025-0.045,0.059-0.06c0.042-0.011,0.042-0.045,0.076-0.045s0.143,0,0.143,0
				l0.037-0.12v-0.146c0,0-0.037-0.085,0-0.085c0.034,0,0.034-0.042,0.067-0.069c0.039-0.022,0.098-0.07,0.098-0.07l0.132-0.076
				l0.045-0.078l0.089-0.036l0.056-0.099l0.059-0.056l0.121-0.015l0.146-0.014h0.112h0.146l0.09-0.022c0,0,0.056-0.022,0.093-0.037
				c0.033-0.011,0.092-0.048,0.092-0.048l0.037-0.078l0.014-0.185l0.048-0.096l0.048-0.062l0.047-0.067h0.166l0.166-0.022
				l0.062,0.022l0.036,0.106l0.073,0.022l0.067,0.096l0.05,0.05l0.062,0.037h0.073l0.101-0.037l0.062-0.04l0.084-0.022h0.084
				l0.067-0.008h0.09h0.095l0.034-0.076l0.062-0.062l0.095-0.02l0.082,0.036l0.081,0.059l0.09,0.07l0.045,0.124l-0.045,0.129
				l-0.014,0.18l0.02,0.106l0.014,0.157l0.076,0.095l0.062,0.084l0.056,0.118l0.045,0.18l0.025,0.14l0.037,0.107l0.084,0.027
				c0,0,0.118-0.036,0.118,0c0,0.034,0.073,0.096,0.073,0.096l0.062,0.141l0.104,0.106l0.036,0.084v0.135l0.04,0.095l0.095,0.012
				v0.143l0.022,0.216v0.146l-0.037,0.09l-0.059,0.014l-0.062,0.121l-0.07,0.117l0.008,0.051h0.124c0,0,0.045-0.028,0.084-0.051
				c0.037-0.022,0.084-0.045,0.084-0.045l0.031-0.098l0.025-0.096l0.096-0.022l0.073-0.036v-0.084V52.52l-0.048-0.099v-0.084
				l0.037-0.095l0.034-0.073l0.07-0.045l0.112-0.015l0.082,0.085l0.045,0.069l0.039,0.107l0.011,0.072l0.096,0.015l0.039-0.121
				l-0.014-0.129l-0.081-0.109l-0.04-0.084l-0.106-0.059l-0.07-0.096l-0.059-0.084l-0.087-0.062l-0.048-0.06l-0.084-0.059
				l0.073-0.073l0.011-0.072c0,0-0.022-0.021-0.059-0.021c-0.034,0-0.095,0-0.095,0l-0.095-0.059c0,0-0.025-0.051-0.051-0.087
				c-0.02-0.033-0.079-0.104-0.079-0.104l-0.025-0.109v-0.146v-0.042v-0.123v-0.096l-0.011-0.095l-0.112-0.084l-0.079-0.118
				l0.008-0.14l0.014-0.112l0.034-0.084l0.048-0.095V49.83l0.087-0.084h0.084l0.118-0.022h0.129l0.053,0.034l-0.028,0.073
				l-0.034,0.048l-0.014,0.095v0.095l0.034,0.048l0.109-0.037l0.076-0.07l0.045,0.084c0,0,0,0.168,0,0.202
				c0,0.034-0.022,0.202-0.022,0.202l0.008,0.109l0.062,0.121l0.059,0.156l0.157,0.009l0.14,0.154l0.039,0.135l0.067,0.045
				l0.062,0.072l0.011,0.073l0.084,0.048l0.062,0.118l0.045,0.081l0.073,0.096l-0.011,0.123l-0.05,0.106l0.017,0.19
				c0,0-0.059-0.011-0.073,0.034c-0.014,0.05-0.084,0.157-0.084,0.157l-0.014,0.168l0.051,0.059l0.025,0.121l0.14,0.14l0.056,0.099
				l0.09,0.059l-0.05,0.106l-0.045,0.063l0.005,0.106l0.135,0.045l0.106,0.014h0.096l0.087,0.014l0.047,0.06l0.082,0.02l0.011,0.112
				l-0.045,0.033l-0.095-0.045l-0.048-0.051l-0.101-0.024H31.93h-0.109l-0.084,0.014l-0.076,0.081l0.025,0.073l0.073,0.025v0.106
				l0.05,0.081l-0.073,0.135l0.011,0.07l0.084-0.014l0.062-0.079l0.048,0.118l0.02,0.059l0.109-0.022l0.034,0.129l0.082-0.062
				l-0.02-0.151l-0.014-0.084v-0.132l0.062-0.037l0.028,0.063l0.05,0.022c0,0,0.031,0,0.031-0.037c0-0.036-0.031-0.14-0.031-0.14
				l0.051-0.037l0.084,0.012l0.036,0.045h0.082l0.034-0.045l-0.02-0.106l-0.048-0.096l0.014-0.051l-0.037-0.095l-0.106-0.07h-0.059
				l0.034-0.121l0.048-0.033l0.014-0.118l-0.014-0.09l-0.022-0.081v-0.081v-0.096l0.011-0.059l0.011-0.062h0.106l0.028,0.12
				l0.005,0.096l0.09,0.008l0.067-0.008l0.109-0.084l0.02-0.085l0.101-0.062h0.095h0.095c0,0,0.034,0.015,0.118,0.015
				c0.084,0,0.134,0,0.134,0l0.045,0.081l0.191,0.096h0.132l0.121-0.07h0.106h0.121h0.095h0.093l0.073-0.012v-0.059l-0.022-0.062
				l-0.098-0.062l-0.014-0.07l-0.017-0.082l-0.039-0.072l-0.037-0.096v-0.072l0.011-0.082l0.064-0.025l0.056-0.106l0.022-0.109
				l0.062-0.059h0.096l0.073-0.118l0.008-0.084l0.025-0.059l0.073-0.144l0.073-0.146l0.047-0.022l0.082,0.048l0.106-0.025
				l-0.014-0.106l0.025-0.084l0.017-0.085l0.008-0.062l0.143-0.008l0.059-0.082l0.051-0.084l0.045-0.011l0.095-0.062l0.132-0.063
				l0.073-0.022h0.135l0.022,0.157l0.062,0.084l0.067,0.045h0.154h0.076l0.045,0.015l0.073,0.07l-0.056,0.036h-0.101l-0.106,0.059
				l-0.051,0.106l0.04,0.048l0.14,0.073l0.017,0.084l-0.025,0.12v0.096l0.059,0.059h0.062l0.067-0.05l0.084-0.009
				c0,0,0.011-0.051,0.045-0.051c0.039,0,0.124-0.036,0.124-0.036l0.084-0.009l0.011-0.072l0.134-0.012h0.054l0.112-0.025
				l0.082-0.047c0,0,0.011-0.096-0.073-0.096c-0.084,0-0.129,0-0.129,0l-0.106-0.014l-0.084-0.025l-0.022-0.06l-0.062-0.056
				l-0.084-0.036l-0.045-0.063l-0.062-0.069l0.129-0.012c0,0,0.073,0.012,0.109,0c0.037-0.011,0.106-0.048,0.106-0.048l0.076-0.022
				l0.101-0.05l0.135-0.057l0.056-0.027l0.157-0.012l0.134-0.062l0.045-0.034h0.124l0.045-0.059h0.095l0.073-0.014l0.118-0.011
				l0.062,0.073l-0.112,0.059l-0.067,0.048l-0.044,0.067l-0.096,0.017h-0.089v0.073l0.12,0.07c0,0,0.051,0.059,0,0.069
				c-0.047,0.015-0.126,0.051-0.126,0.051l-0.101,0.034v0.095l-0.095,0.073l-0.095,0.022l-0.07,0.051l0.037,0.188l0.196,0.121
				l0.09,0.084l0.118,0.033l0.073,0.062l0.132,0.082l0.02,0.062l0.076,0.081l0.07,0.096l0.034,0.09l0.073,0.033l0.124,0.048
				l0.082,0.033c0,0,0.047-0.021,0.047,0.015c0,0.033,0.034,0.07,0.034,0.07l0.09,0.143l0.101,0.106l-0.037,0.121l-0.104,0.14
				l-0.096,0.051l-0.146,0.141l-0.096,0.075h-0.129l-0.073-0.075h-0.146l-0.106,0.03h-0.132h-0.132l-0.104-0.05l-0.177-0.012
				c0,0-0.05,0.022-0.089-0.028c-0.031-0.045-0.031-0.045-0.031-0.045l-0.081-0.024l-0.084-0.07v-0.045l-0.05-0.051l-0.084-0.048
				h-0.118l-0.04-0.075l-0.048-0.093h-0.154l-0.107,0.014h-0.084l-0.191-0.014h-0.106L35.63,52.41l-0.112,0.067l-0.09,0.042
				l-0.076,0.045l-0.079,0.059l-0.137,0.059h-0.09l-0.062-0.02l-0.146-0.039l-0.095-0.011h-0.07l-0.095-0.022h-0.062l-0.008,0.072
				h0.07l0.036,0.012l0.022,0.093h-0.14c0,0-0.05-0.025-0.073,0.014c-0.028,0.033-0.028,0.033-0.028,0.033l-0.179,0.022h-0.118
				h-0.084l-0.045-0.045h-0.095l-0.062-0.05l-0.044,0.014l-0.112,0.036l-0.07,0.034l-0.059,0.101l-0.073,0.118l-0.045,0.132h0.107
				c0,0,0.056-0.036,0.056,0.009c0,0.05-0.011,0.193-0.011,0.193l0.011,0.132l-0.081,0.072l-0.115,0.06l0.09,0.045l0.095,0.036
				c0,0,0.073,0.011,0.062,0.048c-0.011,0.033-0.037,0.132-0.037,0.132s0.096,0,0.048,0.045c-0.048,0.048-0.082,0.157-0.082,0.157
				s0.104-0.045,0.082,0c-0.022,0.047,0.014,0.123,0.014,0.123h0.146l0.09,0.009l0.014,0.087l0.056,0.036l0.112,0.009l0.011,0.095
				c0,0,0.084-0.033,0.073,0.025c-0.014,0.059,0.011,0.093,0.011,0.093l0.056,0.036l0.05,0.025l0.073,0.022l0.118,0.025h0.106
				l0.039-0.132l0.045-0.106l0.096-0.022l0.179,0.022l0.067,0.022l0.09,0.062l0.048,0.106l0.067,0.132l0.109,0.07
				c0,0,0.143-0.012,0.18,0c0.034,0.011,0.18,0.011,0.18,0.011s0.062,0,0.098-0.022c0.036-0.022,0.109-0.084,0.109-0.084
				l0.056-0.067l0.044-0.05l0.146,0.022l0.073,0.047l0.073,0.034l0.056-0.034l0.084-0.069h0.132l-0.095,0.129l-0.076,0.095v0.18
				v0.183c0,0,0,0.093,0,0.143c0,0.045-0.006,0.154-0.006,0.154l-0.039,0.07c0,0-0.084,0.048-0.095,0.096
				c-0.011,0.05-0.107,0.227-0.107,0.227l-0.121,0.132c0,0-0.008,0.045-0.036,0.118c-0.022,0.073-0.118,0.216-0.118,0.216
				l-0.045,0.177l-0.062,0.151l-0.148,0.163l-0.154,0.12l-0.141,0.022h-0.098l-0.205-0.05l-0.101-0.093l-0.084-0.067l-0.106-0.079
				h-0.183l-0.129,0.012l-0.202-0.012l-0.252,0.037l-0.081,0.095h-0.143l-0.168-0.053l-0.166-0.079l-0.171-0.106l-0.168-0.062
				l-0.143-0.093h-0.19l-0.157-0.025l-0.14-0.022l-0.048-0.111l-0.014-0.045l-0.191-0.118l-0.21-0.012l-0.098-0.084l-0.106-0.084
				l-0.034-0.132l-0.017-0.073l-0.118-0.081l-0.106-0.048l-0.213-0.036l-0.19-0.011l-0.135,0.011l-0.118,0.059
				c0,0-0.045,0.037-0.076,0.07c-0.02,0.036-0.059,0.135-0.059,0.135l-0.011,0.165l-0.034,0.194l-0.106,0.154l-0.18,0.081
				c0,0-0.146,0-0.18,0c-0.039,0-0.129-0.118-0.129-0.118l-0.076-0.117l-0.081-0.124l-0.191-0.081l-0.095-0.096l-0.196-0.047
				l-0.107-0.06l-0.045-0.098v-0.07v-0.096v-0.143l-0.025-0.057l-0.109-0.135l-0.129-0.095l-0.143-0.084l-0.087-0.082l-0.196-0.036
				l-0.146-0.012l-0.073-0.075l-0.045-0.084l-0.062-0.054l-0.073-0.05l-0.09-0.096l-0.04-0.096l-0.101-0.098l-0.101-0.115
				l-0.011-0.062c0,0,0.011-0.106,0.045-0.106c0.036,0,0.129-0.051,0.129-0.051l0.109-0.07l0.095-0.084l0.087-0.036l0.022-0.063
				l0.006-0.081v-0.12l-0.017-0.082v-0.109l0.017-0.095l0.076-0.034l0.095-0.036l0.062-0.051v-0.059v-0.096H28.5h-0.084
				l-0.051-0.022l-0.034-0.095l-0.056-0.085l-0.132-0.069c0,0-0.025-0.018-0.062,0c-0.034,0.011-0.109,0.033-0.109,0.033H27.83
				l-0.154-0.014l-0.129-0.141l-0.118-0.036l-0.135-0.045h-0.143h-0.109l-0.09-0.062c0,0-0.017-0.06-0.087-0.06
				c-0.076,0-0.227-0.039-0.227-0.039l-0.141-0.078l-0.089-0.018h-0.082L26.22,52.23l-0.07-0.012l-0.182-0.05h-0.191h-0.19
				c0,0-0.109,0.05-0.143,0.05s-0.146,0-0.146,0l-0.118,0.012l-0.163,0.07l-0.146-0.02l-0.135-0.087l-0.095-0.07
				c0,0-0.082-0.084-0.129-0.084c-0.048,0-0.18-0.04-0.18-0.04l-0.056-0.14l-0.014-0.096l-0.045-0.12l-0.036-0.07l-0.109,0.059
				c0,0-0.048,0.06-0.098,0.096c-0.042,0.036-0.104,0.132-0.104,0.132l-0.064,0.059c0,0-0.093,0.076-0.151,0.109
				c-0.062,0.034-0.124,0.06-0.157,0.06c-0.036,0-0.132-0.012-0.18,0c-0.044,0.011-0.224,0.011-0.224,0.011
				s-0.084,0.011-0.124,0.036c-0.031,0.022-0.081,0.191-0.081,0.191l-0.171,0.033l-0.09,0.118l-0.106,0.087l-0.157,0.14
				l-0.025,0.109l-0.07,0.202l-0.034,0.183l-0.073,0.093l-0.109,0.047l-0.191,0.109l-0.227,0.015c0,0-0.095,0.07-0.129,0.081
				c-0.04,0.012-0.112,0.012-0.112,0.012h-0.095l-0.09-0.045c0,0-0.098-0.012-0.098,0.033c0,0.048-0.132,0.213-0.132,0.213
				s-0.045,0.025-0.084,0.048c-0.034,0.025-0.213,0.039-0.213,0.039s-0.084,0.06-0.109,0.104c-0.025,0.048-0.177,0.241-0.177,0.241
				l-0.095,0.12l-0.146,0.07l-0.106,0.109l-0.084,0.115c0,0-0.05,0.039-0.084,0.078c-0.034,0.034-0.081,0.102-0.081,0.102
				s0,0.036-0.045,0.084c-0.051,0.051-0.222,0.19-0.222,0.19l-0.118,0.16l-0.034,0.12c0,0,0,0.067,0,0.118c0,0.045,0,0.141,0,0.141
				l0.008,0.204l-0.008,0.166l-0.087,0.072l-0.034,0.106l-0.014,0.264c0,0,0.014,0.096-0.011,0.132
				c-0.022,0.034-0.05,0.16-0.05,0.188c0,0.039-0.118,0.168-0.118,0.168l-0.084,0.18l-0.067,0.219c0,0-0.09,0.07-0.09,0.104
				c0,0.037-0.056,0.146-0.056,0.146l-0.084,0.126l-0.084,0.039c0,0-0.011,0.141-0.011,0.19c0,0.051,0,0.118,0,0.154
				c0,0.037,0.022,0.205,0.022,0.205s-0.096,0.051-0.096,0.096s-0.022,0.188-0.022,0.246c0,0.063-0.045,0.09-0.045,0.124
				c0,0.036,0.022,0.297,0.022,0.297s0.062,0.062,0.062,0.106c0,0.051,0.067,0.157,0.067,0.157h0.123v0.166l-0.05,0.143l0.022,0.121
				l0.064,0.07c0,0,0.037,0.024,0.037,0.069c0,0.048,0.056,0.303,0.056,0.303l0.028,0.096c0,0,0.05,0.048,0.05,0.093
				c0,0.051-0.031,0.171-0.031,0.207c0,0.034-0.008,0.202,0,0.253c0.014,0.045,0.048,0.126,0.031,0.18
				c-0.005,0.042,0.017,0.19,0.017,0.19l0.034,0.141l0.101,0.072l0.045,0.141l0.056,0.157l0.146,0.235l0.076,0.193
				c0,0-0.025,0.191,0.009,0.213c0.033,0.025,0.095,0.133,0.095,0.133l0.05,0.168c0,0,0.096,0.062,0.107,0.095
				c0.011,0.034,0.095,0.118,0.095,0.169c0,0.045,0.177,0.274,0.177,0.274l0.014,0.106l0.107,0.082c0,0,0,0.135,0.039,0.135
				c0.031,0,0.129,0,0.129,0l0.191,0.022H20.5l0.129,0.044l0.132,0.04l0.109,0.048l0.213,0.047l0.124,0.093
				c0,0-0.04,0.106,0.017,0.132c0.062,0.025,0.149,0.076,0.196,0.099c0.045,0.022,0.126,0.069,0.126,0.069l0.222,0.121l0.235,0.022
				h0.202l0.213-0.034l0.121,0.012l0.121-0.012h0.107l0.106,0.034h0.168l0.132,0.062c0,0,0.047,0.045,0.081,0.059
				c0.04,0.009,0.216,0.025,0.216,0.025l0.099,0.057c0,0,0.059,0.135,0.129,0.157c0.073,0.022,0.146,0.117,0.146,0.117l0.045,0.205
				l0.051,0.202l0.011,0.143l0.084,0.157c0,0,0,0.157,0.045,0.157c0.05,0,0.227,0.045,0.264,0.045c0.034,0,0.241,0,0.241,0
				s0.034,0.084,0.07,0.095c0.037,0.015,0.082,0.045,0.146,0.063c0.059,0.011,0.14-0.085,0.14-0.085l0.202,0.239
				c0,0,0.025,0.204,0.064,0.204c0.034,0,0.106,0.06,0.106,0.06l0.115,0.129v0.216v0.143l-0.014,0.193l-0.081,0.118l-0.037,0.118
				l-0.008,0.182c0,0,0.025,0.021,0,0.082c-0.025,0.062-0.025,0.19-0.025,0.19l-0.106,0.106l-0.034,0.157l0.011,0.202l0.045,0.154
				c0,0,0.134,0.059,0.134,0.109c0,0.048,0.011,0.14,0.011,0.14s0.034,0.172,0.073,0.18c0.031,0.012,0.151,0.171,0.151,0.171
				s0.098,0.079,0.098,0.118c0,0.036,0.143,0.177,0.143,0.177l0.124,0.132l0.16,0.193l0.146,0.238l0.095,0.238
				c0,0,0.011,0.191,0.025,0.225c0.005,0.036,0.095,0.18,0.095,0.18l0.062,0.205l0.101,0.134l0.051,0.154l0.022,0.118l0.132,0.135
				l-0.014,0.163l-0.045,0.146l0.045,0.104l0.05,0.132l0.121,0.16c0,0,0.07,0.056,0.07,0.093c0,0.033,0.025,0.252,0.025,0.252
				s-0.014,0.163-0.014,0.202c0,0.033-0.056,0.118-0.056,0.118l-0.171,0.059c0,0-0.07,0.146-0.082,0.183
				c-0.011,0.033-0.084,0.224-0.084,0.258c0,0.039-0.022,0.3-0.022,0.336c0,0.04-0.028,0.241-0.028,0.241l0.014,0.312l0.098,0.193
				l0.104,0.102l0.177,0.157l0.146,0.19l0.129,0.154l0.121,0.154l0.109,0.168c0,0,0.073,0.112,0.109,0.157
				c0.034,0.048,0.096,0.118,0.096,0.118l0.129,0.095l0.093,0.118c0,0,0.089,0.16,0.089,0.193c0,0.036,0.037,0.241,0.037,0.241
				l0.126,0.132l0.073,0.141l0.073,0.157l0.171,0.177l0.104,0.238l0.118,0.143l0.096,0.109l0.112,0.07c0,0,0.084,0.076,0.104,0.106
				c0.025,0.036,0.14,0.112,0.14,0.112l0.16,0.056l0.106,0.109c0,0,0.022,0.118,0.056,0.146c0.039,0.02,0.09,0.14,0.135,0.14
				c0.047,0,0.168,0.012,0.19,0.048c0.028,0.037,0.096,0.166,0.096,0.166l0.109,0.109l0.115,0.109c0,0,0,0.067,0.014,0.117
				c0.014,0.045,0.036,0.166,0.036,0.166l0.135,0.095l0.258,0.154c0,0,0.168-0.005,0.168,0.054c0,0.056,0,0.115,0.062,0.115
				c0.056,0,0.202,0,0.202,0l0.095,0.011c0,0,0.096,0.017,0.132,0.051c0.034,0.036,0.191,0,0.191,0h0.143h0.168h0.118l0.171,0.022
				l0.141,0.073l0.143,0.022l0.168,0.05h0.163h0.267h0.216h0.191l0.163-0.101l0.146-0.022l0.146-0.067l0.14-0.028h0.121l0.07-0.14
				l0.146-0.144l0.095-0.098l0.141-0.096h0.193l0.095-0.096l0.048-0.14l0.022-0.099l0.05-0.165l-0.073-0.099l-0.048-0.093
				l0.14-0.072l0.267-0.073h0.143l0.115-0.067l0.171-0.028l0.048-0.14l0.047-0.146v-0.165v-0.168l-0.121-0.144l-0.095-0.146
				l-0.07-0.093l-0.044-0.168l0.14-0.096l0.143-0.096l0.168-0.095l0.168-0.025l0.118-0.19l0.118-0.022l0.19-0.146l0.264-0.067h0.168
				h0.19l0.143-0.117l0.096-0.126l0.121-0.021l0.089-0.072l0.101-0.141l0.067-0.171l-0.067-0.144v-0.168v-0.12v-0.141v-0.143
				l-0.045-0.146l0.02-0.096l0.047-0.117l0.028-0.096v-0.14l-0.152-0.124l-0.112-0.072l-0.051-0.191l-0.073-0.092l-0.07-0.172
				l-0.025-0.14v-0.144v-0.193l0.025-0.118l-0.143-0.069l-0.073-0.096l-0.022-0.099l0.048-0.117l0.02-0.169l0.05-0.168l0.096-0.096
				l0.121-0.117l0.07-0.168l0.101-0.144l0.022-0.12l0.118-0.115l0.118-0.099l0.096-0.093l0.121-0.12l0.146-0.073l0.14-0.095
				l0.098-0.118l0.045-0.098l0.118-0.099l0.101-0.07l0.163-0.143l0.168-0.118l0.168-0.165l0.166-0.172l0.143-0.089l0.216-0.076
				l0.166-0.07l0.121-0.12l0.166-0.121l0.051-0.117l0.118-0.073l0.124-0.096l0.067-0.095l0.146-0.096l0.07-0.048l0.076-0.168
				l0.064-0.144l0.098-0.07l0.095-0.12l0.096-0.073l0.073-0.069l0.022-0.144l0.022-0.118l0.098-0.143l0.095-0.121l0.121-0.213
				l0.045-0.096l0.025-0.168l0.121-0.073l0.02-0.117l0.126-0.121l0.044-0.143l0.02-0.168l0.031-0.169l0.045-0.07l0.022-0.168v-0.141
				V65.34l-0.011-0.045l-0.045-0.039l-0.062-0.025l-0.073,0.051l-0.118,0.014l-0.084,0.06h-0.132l-0.143,0.036l-0.084,0.062
				l-0.095,0.022h-0.121l-0.121,0.009l-0.09,0.07h-0.196h-0.118l-0.107,0.062l-0.106,0.05l-0.124,0.067l-0.14-0.008l-0.07-0.015
				h-0.107l-0.154,0.015l-0.098,0.093l-0.109,0.05h-0.157l-0.118-0.011l-0.092-0.039l-0.048-0.07l-0.028-0.048l-0.115-0.106
				l-0.028-0.06l-0.059-0.05l-0.07-0.048h-0.126l-0.112-0.022l-0.039-0.048l0.076-0.059l0.076-0.039l0.09-0.012l0.07-0.07
				l-0.009-0.072l-0.034-0.082l-0.05-0.072l-0.067-0.082l-0.09-0.064l-0.098-0.069l-0.079-0.107l-0.087-0.069l-0.084-0.096
				l-0.082-0.059l-0.07-0.076l-0.059-0.096l-0.076-0.069l-0.129-0.073l-0.106-0.034l-0.099-0.095l-0.07-0.062l-0.106-0.015
				l-0.079-0.067l-0.076-0.072l-0.048-0.118l-0.062-0.12l-0.048-0.099l-0.014-0.101l-0.011-0.087l-0.011-0.099l-0.011-0.056v-0.096
				l-0.028-0.084l-0.079-0.096l-0.062-0.106l-0.011-0.036l-0.096-0.087l-0.062-0.082l-0.084-0.069l-0.107-0.063l-0.053-0.039
				l-0.031-0.078l-0.037-0.169v-0.12v-0.093l-0.045-0.084l0.02-0.084v-0.106l-0.034-0.063l0.014-0.084v-0.095l-0.036-0.109
				l-0.022-0.054v-0.148l-0.037-0.096l-0.076-0.059l-0.056-0.062l-0.07-0.118l-0.132-0.073l-0.084-0.067l-0.011-0.123l-0.014-0.118
				l-0.009-0.117v-0.112v-0.081l-0.062-0.07l-0.062-0.062l-0.07-0.118l-0.034-0.146l-0.087-0.188l-0.011-0.132L35.4,59.181
				l-0.067-0.135l-0.04-0.14l-0.02-0.118l-0.025-0.109l-0.011-0.099l-0.025-0.106l-0.076-0.084l-0.02-0.095l-0.07-0.085
				l-0.056-0.117l-0.005-0.084l-0.034-0.096l-0.042-0.129L34.9,57.686l-0.036-0.072v-0.104l0.011-0.117l0.084,0.067l0.025,0.154
				l0.081,0.134l0.025,0.166l0.062,0.143l0.059,0.082l0.011,0.123l0.05,0.025l0.07,0.059l0.09,0.037l0.076-0.051v-0.104l0.07-0.135
				l0.009-0.084l0.053-0.096l0.05-0.118l0.045,0.057L35.7,58.033l-0.047,0.118v0.109l0.123,0.025l0.045,0.096l0.082,0.117
				l0.025,0.154l0.062,0.099l0.095,0.165l0.084,0.059l0.022,0.085l0.014,0.132l0.093,0.047l0.034,0.082l0.047,0.05l0.025,0.07
				l0.022,0.132l-0.011,0.169l0.073,0.106l0.039,0.022l0.056,0.072c0,0,0.011,0.012,0.047,0.012c0.037,0,0.037,0,0.037,0l0.07,0.084
				l0.064,0.096l0.101,0.12l0.062,0.081l0.039,0.107l0.082,0.134l0.048,0.104v0.157l-0.022,0.081v0.16v0.129l0.045,0.132v0.134
				l0.062,0.096l0.084,0.045l0.107,0.096l0.095,0.022l0.059,0.027l0.076,0.034l0.044,0.084l0.062,0.039l0.034,0.106l0.106,0.093
				l0.011,0.121v0.129l0.059,0.022v0.098l0.062,0.096l0.025,0.099l0.104,0.033l0.062,0.084l0.059,0.057l0.051,0.039l0.081,0.104
				l0.028,0.076l0.053,0.084l0.039,0.104l0.051,0.148l-0.014,0.112l0.014,0.124l-0.014,0.095l0.014,0.151l0.062,0.102l0.006,0.177
				l0.05,0.084l0.011,0.12l0.05,0.057v0.146l0.034,0.048l0.009,0.118l0.031,0.036l0.005,0.117h0.059l0.047,0.051l0.135,0.012h0.151
				h0.135l0.095-0.034l0.096-0.062l0.036-0.07l0.082-0.059l0.087-0.084h0.095h0.067h0.132h0.121l0.121-0.025l0.082-0.036
				l0.098-0.034l0.034-0.073l0.073-0.069l0.095-0.015l0.093,0.015h0.171l0.062-0.054l0.056-0.059l0.059-0.07l0.087-0.059
				l0.154-0.025l0.228-0.093l0.095-0.051l0.118-0.048l0.051-0.069h0.129l0.121-0.084l0.106-0.096l0.109-0.048l0.082-0.022
				l0.036-0.12l0.014-0.073l0.045-0.059l0.059-0.085l0.106-0.047h0.073l0.073-0.048l0.107-0.022l0.062-0.051l0.084-0.036
				l0.081-0.037l0.059-0.03h0.112h0.118l0.073-0.028l0.126-0.084l-0.011-0.081l0.036-0.107l0.059-0.069l0.093-0.06h0.101L44,62.583
				l0.073-0.048l0.02-0.084l0.053-0.106l0.022-0.096l0.062-0.062l0.067-0.033l0.096-0.022l0.073-0.028l0.07-0.045l0.011-0.073
				l-0.02-0.098l-0.017-0.144l0.025-0.117l0.011-0.132l0.064-0.06l0.056-0.059h0.121l0.07-0.059l0.017-0.118l0.056-0.087
				l0.073-0.067l0.062-0.132l0.067-0.062l0.022-0.073l0.04-0.072l0.022-0.085l-0.011-0.067v-0.072l-0.062-0.015l-0.079-0.036
				l-0.05-0.033l-0.07-0.073l-0.064-0.084l-0.056-0.062l-0.05-0.045l-0.056-0.012l-0.171-0.048l-0.141-0.036l-0.157-0.036
				l-0.166-0.07l-0.07-0.036l-0.081-0.093l-0.064-0.087l-0.037-0.129v-0.135V59.31v-0.095v-0.121l-0.095-0.07l-0.045,0.146
				l-0.076,0.095l-0.054,0.106l-0.112,0.13l-0.073,0.106l-0.106,0.101l-0.106,0.096l-0.051,0.117l-0.163,0.073h-0.171l-0.121,0.009
				l-0.118,0.014l-0.104,0.033l-0.087,0.073h-0.129l-0.084-0.014l-0.084-0.06l-0.073-0.033l-0.022-0.073l0.011-0.059l0.011-0.073
				l0.059-0.059l-0.008-0.099l-0.05-0.104l0.014-0.05l-0.014-0.152l-0.037-0.062l-0.062-0.062l-0.079,0.051l-0.037,0.084
				l0.037,0.129l-0.076,0.022l0.014,0.112v0.084l-0.025,0.096l0.011,0.093l-0.107-0.118l-0.034-0.109l-0.05-0.132l-0.031-0.048
				l-0.064-0.036V59.36v-0.084l0.028-0.07l-0.045-0.087l-0.064-0.096l-0.047-0.072l-0.084-0.045l-0.095-0.051l-0.07-0.118
				l-0.109-0.135l-0.095-0.104l-0.056-0.098l-0.011-0.106l-0.09-0.085v-0.095l-0.045-0.051l-0.084-0.09l-0.129-0.062l0.056-0.081
				h0.095l0.011-0.048v-0.06v-0.12h0.095l0.073-0.025l0.062-0.048l0.022-0.095v-0.096h0.143l0.025,0.109l0.07,0.031l0.037,0.064
				l0.07-0.015l0.076,0.015l0.081,0.045l0.037,0.109l0.073,0.095c0,0,0.048,0.022,0.056,0.084c0.011,0.06,0.112,0.166,0.112,0.166
				l0.09,0.154l0.095,0.146l0.076,0.118l0.045,0.081h0.146l0.106,0.015l0.079,0.075c0,0,0.076,0.009,0.076,0.059
				c0,0.045,0.106,0.07,0.106,0.07l0.18,0.045l0.037,0.099l0.095,0.033l0.154,0.012l0.129,0.062h0.126l0.092-0.037l0.095-0.059
				l0.093-0.084l0.104-0.081l0.163-0.06h0.118l0.129,0.034l0.087,0.129l0.048,0.132l0.028,0.12l0.082,0.085l0.143,0.033h0.143h0.132
				l0.07,0.022l0.146,0.017l0.104-0.017l0.112,0.039h0.152l0.121-0.022h0.121l0.118,0.012l0.095,0.011H45.8l0.107-0.022l0.123-0.039
				l0.073-0.033h0.14l0.14-0.012l0.051-0.073l0.07-0.062l0.109-0.011l0.084,0.011h0.096h0.14l0.014-0.045h0.098l0.179-0.025
				l0.082-0.059l0.154-0.022l0.118-0.048l0.084,0.07v0.096h0.062l0.084,0.022l0.062,0.072l0.045,0.191l0.12,0.05l0.11,0.034
				l0.151,0.048l0.084,0.157l0.084,0.081h0.135h0.118h0.118l0.084-0.022l0.095-0.039l0.059-0.096l0.025,0.143l-0.051,0.088
				l-0.106,0.069l-0.106,0.025l-0.096,0.06v0.106l0.132,0.072l0.048,0.084c0,0,0.129,0.021,0.118,0.06
				c-0.011,0.036,0.087,0.106,0.087,0.106l0.07,0.022l0.084,0.017l0.118,0.045l0.096-0.011l0.087-0.051l0.092-0.045l0.051-0.084
				l0.056-0.073l0.011-0.106l0.014-0.154v-0.132l0.037-0.07l0.104-0.014l0.017,0.084v0.118l0.034,0.05l0.011,0.154l0.07,0.121
				l0.087,0.045l0.014,0.146v0.141l-0.039,0.084v0.12l0.011,0.048l0.067,0.073l0.09,0.135l-0.014,0.117v0.154l0.031,0.093
				l0.045,0.123l0.022,0.073l0.093,0.154l0.048,0.177l0.084,0.146l0.072,0.141l0.073,0.084l0.115,0.129l0.03,0.146l0.082,0.081
				l0.07,0.076l0.095,0.092l0.022,0.106l0.039,0.099l0.096,0.07l0.008,0.132l0.043,0.095l0.006,0.082l0.109,0.112l0.12,0.069
				l0.036,0.118l0.115,0.084v0.106l0.025,0.07l0.07,0.076l0.062,0.104l0.059,0.098l0.015,0.132l0.047,0.104l0.082,0.072l0.062,0.121
				l0.073,0.059l0.025,0.037l0.03,0.036l0.048,0.081l0.087,0.059l0.095-0.008l0.057-0.146l0.09-0.07v-0.191l0.067-0.062l0.075-0.093
				l0.093-0.109l0.034-0.081v-0.098l0.033-0.085l0.028-0.14l0.118-0.039c0,0,0.12,0.011,0.105-0.022
				c-0.011-0.04-0.033-0.144-0.033-0.144V63.5l-0.022-0.129l-0.059-0.096v-0.132l0.02-0.132l0.039-0.084l0.034-0.084v-0.106v-0.154
				l-0.023-0.081l-0.011-0.112l-0.059-0.163l-0.042-0.202l0.014-0.106l-0.048-0.146v-0.129l0.034-0.124l0.101-0.062h0.096
				l0.05-0.106v-0.084l0.068-0.059l0.078-0.07l0.111-0.084l0.029-0.084l0.016-0.118l0.076-0.096l0.082-0.146l0.047-0.067
				l0.063-0.135l0.095-0.096l0.06-0.117l0.05-0.112l0.056-0.09l0.012-0.123l0.059-0.129l0.051-0.107l0.037-0.111l0.069-0.118
				l0.081-0.084l0.073-0.115l0.085-0.112l0.134-0.106l0.011-0.132v-0.213l-0.021-0.118v-0.157l0.056-0.117l0.085-0.112l0.061-0.129
				l0.057,0.036h0.109l0.087-0.048l0.118-0.084l0.154-0.081l0.025-0.121l0.15-0.056l-0.005-0.146l-0.015-0.132l0.082-0.098
				l0.109-0.034l0.115,0.012l0.059,0.051l0.098,0.117l0.028,0.18l0.064,0.151c0,0,0.054,0.062,0.075,0.096
				c0.023,0.039,0.178,0.072,0.178,0.072l0.096,0.085l0.182,0.084l0.129,0.106v0.096l0.067,0.021l0.09,0.04l0.045,0.143l0.123,0.104
				l0.067,0.102l0.018,0.129c0,0,0.011,0.062,0,0.106c-0.018,0.048-0.018,0.18-0.018,0.18l0.051,0.129l0.062,0.123l0.067,0.07h0.109
				l0.059-0.07l0.073-0.123l0.045-0.118l0.062-0.117c0,0,0-0.045,0-0.084c0-0.034,0.073-0.107,0.073-0.107v-0.084V58.62l0.073-0.062
				l0.033,0.084l0.084,0.011l0.107,0.051l0.072,0.07v0.12l0.012,0.166l0.033,0.146l0.076,0.165l0.12,0.166l0.084,0.117l0.081,0.149
				l0.07,0.101l0.059,0.112l0.037,0.18l0.025,0.168l0.062,0.096l-0.025,0.151l0.025,0.18v0.18l0.02,0.143l0.025,0.205l0.014,0.117
				l-0.014,0.169l0.036,0.106l0.084,0.084l0.106,0.048l0.096,0.132l0.135,0.117l0.096,0.063l0.056,0.19l0.045,0.096v0.143
				l0.025,0.168l0.025,0.082l0.072,0.146l0.107,0.106l0.027,0.144l0.057,0.069l0.059,0.085l0.087,0.027l0.09,0.031l0.157,0.014
				h0.109l0.045-0.062l0.07-0.106l-0.045-0.193l-0.045-0.115l-0.073-0.123l-0.039-0.154l0.025-0.096l-0.048-0.118l0.022-0.132
				l-0.009-0.129l-0.062-0.095L60.133,62l-0.096-0.025l-0.096-0.073l-0.084-0.07l-0.12-0.036l-0.132,0.036l-0.084-0.098
				l-0.067-0.082l-0.04-0.132l-0.05-0.062l-0.067-0.067l-0.028-0.101l-0.067-0.081l-0.039,0.109l-0.106-0.073v-0.141v-0.156
				l-0.059-0.087l0.036-0.154l-0.036-0.146l0.059-0.151v-0.106l-0.022-0.157l-0.012-0.12l0.022-0.104l-0.033-0.109l-0.025-0.129
				v-0.132l0.036-0.09l0.079-0.042l0.087-0.048l0.05,0.048v0.104l0.031,0.101h0.09l0.056-0.036l0.07-0.064h0.064l0.02,0.064
				l0.109,0.008l0.048,0.073l0.087,0.073c0,0,0.057,0.069,0.057,0.106c0,0.036,0.109-0.012,0.109-0.012l0.036,0.157l0.104-0.039
				l0.132,0.011l0.106,0.012l-0.011,0.157l0.025,0.084v0.117l0.059,0.146l0.081-0.084l0.063-0.169l0.008-0.154l0.051-0.132
				l0.011-0.132l-0.011-0.129v-0.146l0.084-0.076l0.034-0.067l0.084-0.106c0,0,0.025-0.081,0.039-0.117
				c0.011-0.04,0.081-0.146,0.081-0.146v-0.095l0.02-0.082l0.042-0.12l-0.047-0.132L61.024,58.488z M27.558,63.144l-0.146,0.096
				l-0.092,0.118l-0.168-0.02c0,0,0-0.146,0-0.264c0-0.121-0.095-0.096-0.095-0.096s-0.146-0.051-0.146-0.123
				c0-0.07,0-0.141,0-0.141v-0.146l0.095-0.096h0.076l0.07,0.073l0.115,0.095v0.118l0.101,0.146l0.118,0.022l0.073,0.051V63.144z
				 M33.667,72.481c0,0.072-0.045,0.143-0.045,0.143l-0.07-0.045l-0.098-0.075l-0.045-0.236l-0.168-0.264l-0.143-0.095l-0.143-0.144
				l-0.073-0.213v-0.241l-0.02-0.168v-0.115v-0.216l0.02-0.191h0.096c0,0,0.073,0.07,0.073,0.144c0,0.07,0,0.213,0,0.213v0.191
				c0,0,0,0.05,0.073,0.143c0.07,0.096,0,0.096,0.07,0.165c0.076,0.076,0,0.191,0.076,0.242c0.067,0.047,0.09,0.117,0.09,0.117
				c0.022,0.096,0.05,0.289,0.118,0.289c0.076,0,0.191,0.115,0.191,0.188C33.667,72.386,33.667,72.408,33.667,72.481z
				 M35.153,73.222c0.07,0.07,0.095,0.216,0.095,0.216v0.261v0.219v0.188l0.096,0.19l0.07,0.286c0,0-0.044,0.096-0.095,0.025
				c-0.045-0.073-0.124-0.118-0.124-0.118l-0.143-0.216l-0.022-0.264l-0.07-0.193l0.121-0.235l-0.051-0.169l-0.121-0.14
				l-0.044-0.289h0.095l0.121,0.095C35.08,73.078,35.08,73.148,35.153,73.222z M34.959,69.542l-0.051,0.146h0.194l-0.022,0.118
				l-0.121,0.098l-0.095,0.045l-0.048,0.222c0,0-0.073-0.053-0.073,0.02c0,0.07,0,0.191,0,0.191l-0.045,0.143h-0.096l-0.196,0.07
				l-0.163-0.093h-0.216l-0.121,0.022l-0.045-0.406l0.02-0.262l0.025-0.168l0.146-0.096l0.163-0.05h0.146h0.191h0.168H34.959z
				 M42.558,52.987l-0.129,0.063l-0.163-0.063h-0.191l-0.045,0.236c0,0,0.017,0.162,0.095,0.162c0.073,0,0.157-0.017,0.157-0.017
				l0.163,0.078l-0.05,0.144l0.017,0.208c0,0,0.017,0.176,0.034,0.221c0.011,0.051,0.011,0.127,0.011,0.177
				c0,0.051,0.079,0.205,0.079,0.205v0.205h-0.219h-0.18l-0.143,0.067c0,0-0.092,0.017-0.188,0.017c-0.096,0-0.21,0-0.21,0
				l-0.171-0.112l-0.112-0.093l-0.208-0.02l-0.157-0.078l-0.079-0.096V54.18l-0.017-0.177l-0.062-0.109l0.045-0.16l0.129-0.271
				l0.126-0.219l-0.064-0.177l-0.129-0.129l-0.106-0.144l-0.084-0.129l-0.084-0.075l-0.101-0.112l-0.056-0.096l-0.028-0.096
				l-0.112-0.092l-0.082-0.146v-0.112V51.81l-0.031-0.117l-0.017-0.045l-0.126-0.079l-0.079-0.095l0.045-0.146l0.081-0.093
				l0.096-0.207l0.031-0.174V50.71l0.082,0.018l0.033,0.095l0.09,0.017c0,0,0.146,0.045,0.146-0.017c0-0.067,0-0.129,0-0.129
				s0.028-0.078,0.084-0.078c0.045,0,0.191,0,0.191,0l0.129-0.063l0.124-0.084l0.045-0.095l0.146-0.047h0.081
				c0,0,0.045,0.036,0.093,0.036c0.047,0,0.163,0,0.163,0l0.062-0.036l0.062,0.017l0.047,0.048c0,0,0.098-0.017,0.098,0.033
				c0,0.045,0.093,0.157,0.093,0.157l0.115,0.157l0.157,0.067l0.05,0.126c0,0,0.225,0.112,0.124,0.112
				c-0.095,0-0.174,0.048-0.174,0.048l-0.208,0.017c0,0-0.045-0.03-0.129-0.03c-0.079,0-0.236,0-0.236,0l-0.143,0.092l-0.112,0.082
				l-0.031,0.19l-0.174,0.031l-0.146-0.018c0,0-0.028,0.129,0.017,0.129s0.174,0.018,0.174,0.018s0.082,0.09,0.082,0.156
				c0,0.063,0.095,0.222,0.095,0.222l0.157,0.034l0.062,0.112l0.163,0.02c0,0,0.028,0.174,0.028,0.219
				c0,0.048-0.062,0.27-0.062,0.27l0.115,0.064l0.112-0.194l0.106-0.075l0.067,0.014l0.157,0.129l0.079,0.093l0.135,0.099
				L42.558,52.987z M44.319,51.061v0.174l-0.073,0.16l-0.067,0.144c0,0-0.112,0.014-0.174,0.014c-0.067,0-0.129,0-0.18,0
				c-0.045,0-0.208,0-0.208,0l-0.045-0.123l-0.062-0.163l-0.095-0.157l0.079-0.081v-0.144l0.017-0.156l0.093-0.034h0.078
				l0.065-0.112c0,0-0.096-0.112,0-0.112c0.095,0,0.157-0.078,0.157-0.078s0.017-0.079,0.067-0.079s0.129,0,0.129,0l0.112-0.017
				v0.16l0.034,0.16l0.039,0.14l0.104,0.115l0.059,0.062L44.319,51.061z M48.874,49.291c0,0-0.112-0.028-0.112,0.02
				c0,0.045-0.079,0.076-0.126,0.076c-0.048,0-0.143,0-0.143,0s-0.064,0.067-0.126,0.067c-0.064,0-0.238,0.031-0.238,0.031
				l-0.163,0.098c0,0-0.073,0.09-0.073,0.157c0,0.062-0.051,0.222-0.051,0.222s-0.017,0.109,0.011,0.157
				c0.04,0.05,0.084,0.146,0.084,0.146l-0.095,0.014l-0.129-0.031l-0.079-0.093l-0.034-0.084l-0.034-0.14l0.017-0.146l0.078-0.126
				l0.034-0.092l0.084-0.082l0.14-0.047l0.191-0.034l0.19-0.017l0.096-0.011l0.064-0.05l0.109-0.034l0.05-0.064l0.112-0.045
				l0.076-0.037l0.095,0.022L48.874,49.291z M52.762,44.865l-0.118,0.115l-0.106,0.028l-0.051-0.079l0.051-0.064l0.012-0.159
				l-0.012-0.095c0,0-0.051-0.048-0.051-0.112c0-0.063,0.051-0.219,0.051-0.219l-0.096-0.127l-0.033-0.096l-0.064-0.21l-0.093-0.11
				l-0.034-0.162l-0.078-0.108l-0.098-0.147l-0.079-0.062l-0.03-0.129h0.126l0.095,0.112l0.082,0.143c0,0,0.033,0.064,0.078,0.064
				s0.129,0.083,0.129,0.083l0.028,0.143l0.101,0.093l0.045,0.113l0.028,0.093l0.056,0.129l-0.016,0.143l-0.04,0.095l0.022,0.159
				l0.078,0.083l0.018,0.157V44.865z"/>
			<path fill="#231F20" d="M39.593,77.821l0.079-0.064l0.194-0.014h0.171h0.129l0.143-0.079l0.017-0.095l0.045-0.109l0.078-0.115
				l0.073-0.112l0.028-0.174l0.073-0.109c0,0,0.04-0.115,0.101-0.16c0.067-0.048,0.096-0.177,0.096-0.177l0.034-0.095l0.044-0.093
				l0.067-0.096l0.079-0.193l0.062-0.143l0.082-0.112v-0.146v-0.14l0.109-0.067l0.048-0.09v-0.129v-0.062v-0.196l0.112-0.015
				l0.065,0.096l0.076-0.015v-0.114c0,0,0.017-0.109,0-0.157c-0.014-0.048-0.028-0.126-0.028-0.126v-0.157L41.52,74.45l-0.048-0.115
				l-0.064-0.126l-0.095-0.078l-0.079-0.051h-0.112l-0.031,0.098l-0.014,0.144l-0.129,0.064l-0.129,0.028l-0.079,0.064l-0.017,0.101
				l0.045,0.09l-0.106,0.051l-0.04,0.095l-0.14,0.031c0,0-0.045-0.048-0.062,0c-0.017,0.048-0.034,0.222-0.034,0.222h-0.157
				l-0.064-0.017l-0.112,0.05c0,0,0.017,0.096-0.031,0.129c-0.047,0.028-0.126,0.018-0.126,0.018s-0.031-0.067-0.157-0.051
				c-0.129,0.017-0.193,0.033-0.193,0.033h-0.191l-0.095,0.028l-0.146,0.19l-0.045,0.272l0.096,0.148l-0.012,0.138l0.09,0.146
				c0,0,0.045,0.031,0.017,0.109c-0.034,0.079,0.028,0.067-0.034,0.129c-0.062,0.064-0.174,0.112-0.185,0.16
				c-0.017,0.045-0.084,0.219-0.084,0.219l-0.157,0.115c0,0,0,0.075,0,0.126c0,0.048,0.095,0.19,0.095,0.19l0.09,0.177l-0.028,0.208
				l0.084,0.062c0,0,0.073-0.048,0.14,0.017c0.062,0.063,0.124,0.031,0.14,0.079c0.02,0.05,0.095,0.078,0.095,0.078H39.593z"/>
			<polygon fill="#231F20" points="43.127,64.959 43.256,64.959 43.365,64.925 43.365,64.83 43.256,64.813 43.11,64.813 
				43.032,64.768 42.905,64.802 42.905,64.941 43.048,64.959 			"/>
			<path fill="#231F20" d="M29.773,53.462l0.011-0.109l0.017-0.062l0.031-0.112l0.098-0.129l0.062-0.045v-0.079l-0.079-0.017h-0.208
				l-0.112-0.017h-0.079l-0.047-0.084l-0.064-0.06l-0.112-0.033h-0.109l-0.096,0.048v0.146l0.096,0.028l0.129,0.05
				c0,0,0,0.096,0,0.144s0.079,0.112,0.079,0.112l0.062,0.014l0.064,0.112l0.048,0.064l0.079,0.076L29.773,53.462z"/>
			<path fill="#231F20" d="M32.348,54.606l0.146,0.053l0.062,0.112h0.112l0.095,0.028l0.079,0.084h0.143l0.05,0.078
				c0,0,0.045,0.063,0,0.063c-0.05,0-0.174,0-0.174,0l-0.163,0.017l-0.126-0.096l-0.062-0.051c0,0-0.017-0.011-0.067-0.011
				c-0.045,0-0.129-0.02-0.129-0.02s-0.073-0.017-0.129-0.017c-0.045,0-0.09-0.093-0.09-0.093v-0.081l0.045-0.015L32.348,54.606z"/>
			<path fill="#231F20" d="M35.215,55.229l0.163-0.011h0.174l0.062-0.015l0.174-0.101l0.129-0.017l-0.067,0.098l-0.073,0.096
				l-0.084,0.109l-0.157,0.129c0,0-0.062,0.017-0.112,0.017c-0.045,0-0.252,0-0.252,0l-0.051-0.078l-0.05-0.084v-0.076
				L35.215,55.229z"/>
			<polygon fill="#231F20" points="26.873,51.218 26.935,51.234 26.969,51.17 27.002,51.108 26.907,51.044 26.806,51.027 
				26.761,51.078 26.761,51.17 			"/>
			<polygon fill="#231F20" points="27.288,51.188 27.266,51.108 27.159,51.078 27.125,51.17 27.159,51.234 			"/>
			<path fill="#231F20" d="M28.304,51.633l0.062-0.143l0.017-0.129v-0.096l0.146-0.048l0.107-0.03l0.112-0.018l0.034,0.064v0.093
				l-0.034,0.115l-0.028,0.16l-0.011,0.193c0,0-0.101,0.014-0.112,0.075c-0.017,0.064-0.05,0.144-0.05,0.144L28.46,52l-0.028,0.048
				l-0.157,0.031l-0.05-0.031c0,0-0.064-0.081-0.05-0.129c0.017-0.048,0.017-0.123,0.017-0.123l0.017-0.104L28.304,51.633z"/>
			<polygon fill="#231F20" points="28.719,50.822 28.747,50.68 28.764,50.581 28.848,50.567 28.943,50.52 29.005,50.52 
				29.005,50.581 29.021,50.66 29.005,50.839 28.91,50.951 28.848,51.061 28.735,51.044 			"/>
			<path fill="#231F20" d="M27.254,45.52l0.174-0.017h0.112l0.064,0.017l0.112,0.063c0,0,0.126,0,0.14-0.048
				c0.017-0.05,0.126-0.127,0.126-0.127s0.034-0.029,0.082-0.064c0.047-0.031,0.081-0.111,0.081-0.111l0.014-0.095l0.126-0.064
				l0.146-0.031l0.079-0.046V44.9c0,0-0.062-0.066,0-0.095c0.067-0.035,0.067-0.035,0.067-0.035l0.056-0.129l-0.157-0.013
				l-0.124-0.017l-0.034-0.094l-0.067-0.049l-0.092,0.031l-0.031,0.095c0,0-0.017,0.069-0.064,0.082
				c-0.048,0.016-0.157,0.016-0.157,0.016l-0.017-0.08h-0.112l-0.017,0.08l-0.079,0.032l-0.126,0.046v0.064l0.047,0.129
				c0,0,0.079,0.095,0.017,0.095c-0.064,0-0.16,0-0.16,0l0.017,0.174h-0.191c0,0,0.017-0.063-0.05,0
				c-0.062,0.062-0.14,0.146-0.14,0.146v0.205L27.254,45.52z"/>
			<path fill="#231F20" d="M28.831,44.754l0.079-0.063l0.112-0.11l0.017-0.083v-0.126V44.28l0.079-0.066l0.045-0.062l0.129-0.051
				l0.034-0.109l0.079-0.083l0.033-0.063l0.126-0.044l0.062-0.066l0.112-0.034l0.143,0.034l0.017,0.066l0.045,0.029l0.017,0.079
				l-0.157,0.032l-0.126,0.05l-0.051,0.094c0,0,0.082,0.029,0.129,0.049c0.047,0.017,0.062,0,0.109,0.031
				c0.05,0.031,0.078,0.114,0.078,0.114l-0.221,0.14l-0.174,0.126l-0.129,0.064l-0.106,0.112l0.157,0.031l-0.017,0.268l-0.062,0.085
				l-0.098,0.173v0.127l0.064,0.159l-0.045,0.111c0,0-0.034,0.032-0.064,0.097c-0.034,0.064-0.034,0.16-0.034,0.16l-0.14,0.128
				c0,0,0.126,0.031,0.174,0.031c0.045,0,0.143-0.08,0.143,0c0,0.081-0.064,0.252-0.064,0.252l-0.143,0.113h-0.126h-0.112
				l-0.112,0.079l0.062,0.126l-0.146,0.129c0,0-0.089,0.034-0.151,0c-0.067-0.029-0.135-0.082-0.135-0.082l-0.106-0.123
				l-0.112-0.017l-0.146-0.049l-0.062-0.094h-0.115l-0.045,0.094h-0.062l-0.112-0.046l-0.112-0.031l-0.031,0.014l-0.096-0.095
				l0.109-0.079l0.208-0.049l0.112-0.031L28,46.235l0.096-0.079v-0.111l-0.079-0.067l-0.098-0.059c0,0-0.09-0.081-0.011-0.081
				c0.076,0,0.092,0,0.14,0s0.177,0,0.177,0l0.062-0.129l0.034-0.159l0.062-0.066l0.112,0.018l0.112,0.032l0.112-0.015
				c0,0,0.028-0.08,0.084-0.112c0.045-0.029,0.045-0.143,0.045-0.143v-0.113l0.028-0.109l0.084-0.02l-0.157-0.076l-0.039-0.064
				v-0.048L28.831,44.754z"/>
			<polygon fill="#231F20" points="31.568,46.062 31.63,45.996 31.647,45.919 31.585,45.866 31.439,45.866 31.439,45.979 			"/>
			<path fill="#231F20" d="M31.882,46.126c0.051-0.017,0.067-0.064,0.067-0.064l0.034-0.114v-0.093l-0.112-0.034h-0.163
				l-0.062,0.098c0,0,0.079,0.126,0.062,0.173C31.697,46.139,31.882,46.126,31.882,46.126z"/>
			<path fill="#231F20" d="M30.233,41.22h0.112l0.202-0.017l0.095-0.029l0.101-0.063l0.045-0.095l0.017-0.066l0.062-0.077
				l0.034-0.114v-0.098l-0.079-0.076h-0.18l-0.044-0.083l-0.051-0.043h-0.185l-0.101-0.018l0.051-0.094v-0.096l-0.096-0.049
				l-0.101-0.048l-0.056,0.157l-0.067,0.083l-0.191,0.017l-0.115,0.174c0,0,0.098,0.076,0.02,0.109
				c-0.082,0.034-0.112,0.05-0.112,0.1c0,0.043-0.014,0.205-0.014,0.205s0.062,0.017,0.079,0.094c0.017,0.081-0.05,0.11,0.048,0.127
				c0.095,0.018,0.126,0.018,0.126,0.018l0.143-0.018l0.045,0.048L30.233,41.22z"/>
			<path fill="#231F20" d="M53.793,65.262l0.079-0.099l0.034-0.078l0.062-0.093v-0.129v-0.143v-0.127V64.51l-0.062-0.093
				l-0.063-0.092l-0.051-0.085l-0.03-0.109l-0.129-0.095l-0.095-0.082l-0.109-0.047l-0.068,0.19c0,0,0,0.143-0.011,0.193
				c-0.017,0.045-0.051,0.141-0.051,0.141l-0.017,0.177v0.222l0.017,0.179l0.034,0.127v0.109l0.109,0.095l0.047,0.079h0.144
				l0.099-0.079L53.793,65.262z"/>
			<path fill="#231F20" d="M58.394,63.606l-0.106-0.064l-0.031-0.084v-0.104h0.138l0.177-0.067l0.078-0.079l0.163-0.017l0.174-0.048
				l0.014,0.096l0.102,0.031l0.045,0.084l0.14,0.075l0.129,0.082c0,0,0.018,0.045,0.079,0.095c0.062,0.045,0.146,0.079,0.146,0.079
				l0.112,0.017h0.09l0.118-0.031l0.14,0.063l0.115,0.014l0.062,0.112c0,0,0.096-0.015,0.109,0.033
				c0.02,0.051-0.03,0.191-0.03,0.191v0.19l0.111,0.078h0.096l0.205-0.017l0.126,0.112c0,0,0.064,0.16,0.031,0.21
				c-0.031,0.042-0.031,0.109-0.031,0.154c0,0.051-0.042,0.129-0.042,0.18c0,0.045-0.036,0.303-0.036,0.303L60.783,65.5
				l-0.033,0.174l-0.141,0.099l-0.144,0.109l-0.095-0.048l-0.115-0.079l-0.093-0.03l-0.143-0.144l-0.124-0.129l-0.084-0.095
				l-0.05-0.13l-0.028-0.143L59.7,64.959l-0.095-0.129l-0.124-0.109l-0.084-0.096l-0.078-0.144l-0.034-0.174l-0.033-0.112
				l-0.124-0.05l-0.129-0.012l-0.062-0.148l-0.081-0.078l-0.124-0.063c0,0-0.066-0.064-0.114-0.064s-0.188-0.067-0.188-0.067
				L58.394,63.606z"/>
			<path fill="#231F20" d="M60.722,65.912l0.109-0.202l0.126-0.101l0.079-0.076l0.129-0.064c0,0,0.033,0.048,0.101,0.031
				c0.062-0.017,0.017-0.062,0.09-0.081c0.078-0.015,0.146-0.079,0.146-0.079l0.045-0.177l0.096-0.095l0.084-0.109l0.126-0.079
				l0.064,0.093l0.191-0.076l0.045-0.033v0.146l-0.093,0.127c0,0-0.036,0.126-0.079,0.159c-0.05,0.028-0.114,0.096-0.114,0.096
				l-0.079,0.093l-0.174,0.064l-0.146,0.062l-0.124,0.208l-0.162,0.064c0,0-0.062,0.098-0.112,0.114
				c-0.045,0.012-0.177,0.076-0.177,0.076s-0.042-0.014-0.096-0.014c-0.047,0-0.095,0-0.095,0L60.722,65.912z"/>
			<path fill="#231F20" d="M61.675,63.444v-0.126l-0.092-0.127l-0.099-0.098l-0.051-0.096l0.022-0.222l0.012-0.143l0.017-0.174
				v-0.13l0.034-0.143l0.111-0.031l0.112-0.081l0.079-0.109l0.045-0.16v-0.143v-0.112l0.05-0.093l0.064-0.081l0.096-0.126
				l0.045-0.241l0.064-0.191v-0.156l0.079-0.177l0.014-0.208v-0.126l0.081-0.096l0.031-0.146l0.081-0.073l-0.017-0.18v-0.196
				l0.017-0.14l0.017-0.109l0.015-0.127l0.03-0.146l0.129-0.03l0.018,0.047l0.027,0.129h0.129l0.018,0.112c0,0,0,0.096-0.045,0.124
				c-0.051,0.036,0.027,0.14,0.027,0.14v0.129c0,0-0.078,0.13-0.078,0.18c0,0.051,0.017,0.174,0.017,0.174s-0.033,0.096-0.017,0.146
				c0.017,0.045,0.017,0.14,0.017,0.188s0.034,0.096,0.034,0.096s0.078,0.048,0.078,0.112s0.028,0.177,0.028,0.177
				s0.051,0.078,0.051,0.129c0,0.042-0.063,0.126-0.063,0.126l-0.05,0.188c0,0-0.018,0.112-0.034,0.177
				c-0.011,0.064-0.011,0.193-0.011,0.193l-0.018,0.253c0,0,0,0.157-0.017,0.208c-0.017,0.047-0.033,0.156-0.05,0.207
				c-0.018,0.045-0.045,0.188-0.045,0.235c0,0.051,0,0.286,0,0.286l-0.034,0.191l-0.078,0.207l-0.096,0.146l-0.112,0.015
				c0,0-0.109,0.064-0.16,0.115c-0.047,0.045-0.092,0.106-0.092,0.174c0,0.062-0.048,0.159-0.048,0.159h-0.064l-0.079-0.036
				l-0.174,0.129c0,0-0.067,0.017-0.067-0.03c0-0.048,0-0.191,0-0.191V63.444z"/>
			<path fill="#231F20" d="M62.966,62.378L62.977,62v-0.228l0.017-0.19l0.022-0.177l0.012-0.205l0.078-0.141l0.067,0.045
				c0,0,0.034,0.018,0.062,0.063c0.034,0.05,0.034,0.238,0.034,0.238l0.017,0.244l-0.017,0.207v0.174l-0.079,0.015
				c0,0-0.05,0.159-0.05,0.21c0,0.045-0.034,0.286-0.034,0.286s-0.028,0.075-0.045,0.157c-0.017,0.078-0.045,0.157-0.045,0.157
				l-0.05-0.174V62.378z"/>
			<path fill="#231F20" d="M60.194,55.63l0.033-0.16l0.096-0.21l0.093-0.141l0.095,0.031l-0.017,0.193c0,0,0.067,0.126,0.067,0.174
				c0,0.051,0,0.126,0,0.174c0,0.051-0.017,0.241-0.017,0.241l-0.062,0.129l-0.099,0.012h-0.078l-0.051-0.031l-0.014-0.098v-0.112
				L60.194,55.63z"/>
			<path fill="#231F20" d="M62.043,54.02l-0.034-0.19l0.051-0.188c0,0,0.126-0.034,0.14,0.014c0.018,0.051,0.034,0.174,0.034,0.174
				l0.096,0.129v0.144c0,0,0.03,0.078,0.03,0.129c0,0.042,0,0.109,0,0.157s0.064,0.112,0.064,0.159c0,0.048,0,0.236,0,0.236v0.241
				c0,0,0.079,0.05,0.079,0.112c0,0.066,0,0.159,0,0.159v0.16l-0.127-0.034l-0.017-0.143c0,0-0.064-0.076-0.081-0.129
				c-0.014-0.048-0.014-0.222-0.014-0.222s-0.079-0.096-0.079-0.146c0-0.048,0-0.219,0-0.219l-0.048-0.129l-0.062-0.225
				L62.043,54.02z"/>
			<path fill="#231F20" d="M62.503,55.681l0.03,0.207l0.067,0.09l0.079,0.017c0,0,0.027-0.05,0.027-0.095
				c0-0.051-0.027-0.27-0.027-0.27l-0.112-0.033L62.503,55.681z"/>
			<path fill="#231F20" d="M62.809,56.062v0.283l0.056,0.018l0.084,0.047l0.045,0.063l0.051-0.109c0,0,0-0.146,0-0.191
				c0-0.048-0.028-0.159-0.028-0.159l-0.067-0.079L62.809,56.062z"/>
			<path fill="#231F20" d="M63.189,57.111l-0.017-0.16l0.078-0.048l-0.017-0.19l0.034-0.286v-0.256l0.05-0.098l0.018,0.143
				c0,0,0.045,0.017,0.045,0.067c0,0.045,0,0.188,0,0.188s0.047,0,0.047,0.067c0,0.062,0.065,0.111,0.065,0.162
				c0,0.042,0.017,0.216,0.017,0.216l-0.064,0.146v0.126c0,0,0.048,0,0.048,0.067c0,0.062,0,0.252,0,0.252l-0.079,0.062
				l-0.051-0.095l-0.017-0.109l-0.011-0.163l-0.051,0.115l-0.096,0.028l-0.067-0.106L63.189,57.111z"/>
			<path fill="#231F20" d="M61.249,52.27l0.095,0.064l0.045-0.081l-0.011-0.238l-0.084-0.193l-0.028-0.205l-0.067-0.16l-0.078-0.129
				l-0.096-0.123l-0.084,0.123c0,0,0,0.084,0,0.163c0,0.078,0,0.19,0,0.19s0.033,0.078,0.051,0.129
				c0.017,0.045,0.111,0.205,0.111,0.205l0.018,0.204L61.249,52.27z"/>
			<path fill="#231F20" d="M58.029,43.084l-0.034-0.064l-0.062-0.095l0.033-0.111c0,0,0.113-0.048,0.146,0
				c0.027,0.045,0.126,0.157,0.126,0.157v0.128l0.171,0.16l0.082,0.126c0,0,0,0.147,0.078,0.161
				c0.078,0.017,0.286,0.238,0.286,0.238l0.177,0.273l0.207,0.252l0.112,0.225l0.045,0.22l0.096,0.146l0.101,0.237v0.206
				l0.096,0.112l0.096,0.158l0.045,0.096l0.011,0.174v0.147l0.056,0.22l0.063,0.159l-0.018,0.083l-0.101-0.064l-0.151-0.032
				c0,0-0.051-0.05-0.067-0.111c-0.017-0.063-0.045-0.175-0.045-0.175s0-0.175-0.051-0.206c-0.045-0.037-0.078-0.142-0.078-0.142
				L59.432,45.6l-0.034-0.178V45.25l-0.033-0.143l-0.045-0.178l-0.106-0.125l-0.102-0.164c0,0,0.034-0.106-0.011-0.187
				c-0.054-0.081-0.115-0.161-0.115-0.161s-0.048-0.029-0.112-0.108c-0.062-0.083-0.156-0.175-0.156-0.175l-0.146-0.226
				l-0.048-0.081c0,0-0.075-0.076-0.112-0.141c-0.027-0.066-0.123-0.206-0.123-0.206l-0.146-0.193L58.029,43.084z"/>
			<path fill="#231F20" d="M59.796,46.747l0.034,0.174l0.14,0.014l0.067,0.127l0.062,0.191c0,0,0,0.035,0.064,0.049
				c0.064,0.016,0.093-0.08,0.093-0.08s-0.042-0.16-0.062-0.205c-0.017-0.047-0.096-0.129-0.096-0.129s-0.027-0.063-0.078-0.126
				c-0.051-0.063-0.163-0.192-0.163-0.192h-0.045L59.796,46.747z"/>
			<path fill="#231F20" d="M57.423,42.399l-0.017-0.112l0.017-0.112l-0.044-0.095l-0.133-0.128l-0.096-0.125L57.09,41.7
				l-0.043-0.113l-0.084-0.096c0,0-0.051-0.047-0.064,0c-0.017,0.048-0.096,0.062-0.096,0.062h-0.098h-0.106l0.017,0.05l0.157,0.14
				l0.095,0.178l0.158,0.064l0.095,0.174c0,0,0.048,0.032,0.048,0.08s0.112,0.177,0.112,0.177l0.143,0.079V42.399z"/>
			<path fill="#231F20" d="M54.142,39.917l0.208,0.062l0.189,0.159l0.18,0.064c0,0,0.096,0.017,0.129,0.08
				c0.029,0.064,0.079,0.158,0.079,0.158l0.222,0.094l0.143,0.051c0,0,0.031,0.045,0.064,0.095c0.031,0.048,0.141,0.097,0.141,0.097
				l0.082,0.079l0.095,0.077l0.14,0.097l0.13,0.097l0.112,0.047l0.051-0.047l-0.113-0.128c0,0-0.017-0.08-0.111-0.095
				c-0.096-0.017-0.163-0.048-0.208-0.095c-0.048-0.049-0.081-0.159-0.144-0.178c-0.066-0.014-0.207-0.143-0.207-0.143l-0.078-0.126
				l-0.129-0.129c0,0-0.144-0.094-0.188-0.108c-0.05-0.018-0.18-0.095-0.18-0.095l-0.185-0.097l-0.18-0.099l-0.146-0.092
				l-0.156-0.064h-0.096l0.014,0.112L54.142,39.917z"/>
			<path fill="#231F20" d="M45.581,37.016h0.174h0.112c0,0,0-0.047-0.017-0.094c-0.017-0.048-0.034-0.111-0.034-0.111l-0.062-0.082
				l-0.101-0.062c0,0-0.073-0.064-0.124-0.064s-0.129,0-0.129,0l-0.017,0.126c-0.031,0.082-0.031,0.145-0.031,0.145l0.017,0.08
				l0.098,0.062H45.581z"/>
			<path fill="#231F20" d="M46.296,37.051h0.129l0.031-0.064l-0.031-0.143c0,0,0.017-0.032-0.047-0.032c-0.067,0-0.163,0-0.163,0
				v0.175L46.296,37.051z"/>
			<polygon fill="#231F20" points="45.71,36.51 45.71,36.367 45.654,36.299 45.531,36.299 45.514,36.411 45.559,36.523 			"/>
			<path fill="#231F20" d="M43.651,38.321l0.112-0.109v-0.129l-0.129-0.014h-0.124h-0.115c0,0-0.157-0.146-0.079-0.017
				c0.079,0.126,0.079,0.126,0.079,0.126l0.081,0.129h0.084L43.651,38.321z"/>
			<path fill="#231F20" d="M43.127,38.335l0.225-0.014l-0.082-0.095l-0.079-0.112l-0.095-0.076l-0.126,0.031l-0.047,0.045
				l-0.118-0.045c0,0-0.087,0.096-0.04,0.109c0.04,0.017,0.157,0.017,0.157,0.064c0,0.052,0,0.143,0,0.143L43.127,38.335z"/>
			<path fill="#231F20" d="M42.574,38.226l-0.129-0.143v-0.124l0.146-0.036l0.045,0.036c0,0,0.011,0,0.011,0.045
				C42.647,38.052,42.574,38.226,42.574,38.226z"/>
			<polygon fill="#231F20" points="40.244,42.304 40.258,42.223 40.229,42.143 40.134,42.1 39.975,42.1 39.924,42.271 
				40.036,42.447 40.165,42.447 			"/>
			<path fill="#231F20" d="M40.853,41.634l-0.101-0.031l-0.028-0.112l-0.062-0.064l-0.18-0.031l-0.062-0.017l-0.05-0.063
				l0.017-0.077l0.062-0.035v-0.143v-0.094l0.051-0.047l0.067-0.063l0.073-0.097l-0.017-0.079l0.073-0.095l0.011-0.112V40.33
				l0.084-0.098c0,0,0.011-0.077,0.062-0.094c0.044-0.014,0.078-0.062,0.078-0.062s0-0.08,0.051-0.08c0.045,0,0.045,0,0.045,0
				l0.14-0.112l0.177-0.014c0,0,0.034-0.05,0.081-0.081c0.048-0.031,0.062-0.126,0.062-0.126l0.126-0.083l0.177,0.032l0.051,0.111
				l-0.115,0.127l-0.112,0.082l-0.106,0.047l-0.163,0.08c0,0-0.031,0-0.093,0.064c-0.064,0.064-0.129,0.223-0.129,0.223
				l-0.112,0.155l-0.028,0.226l-0.067,0.049l-0.017,0.205L40.88,41.22l0.067,0.127l0.143,0.191l0.129,0.083l-0.098,0.03h-0.14
				L40.853,41.634z"/>
			<path fill="#231F20" d="M37.431,39.04l-0.096,0.047l-0.129,0.128l-0.067,0.111l-0.14,0.097l-0.067,0.111l-0.095,0.029
				l-0.045-0.092l-0.045-0.112l0.112-0.112l0.151-0.079l-0.095-0.097l0.112-0.014l-0.095-0.081l0.056-0.096l-0.039-0.112
				l0.095-0.205l0.034,0.205l0.112-0.063c0,0,0.062,0.016,0.112,0c0.045-0.012,0.129-0.012,0.129-0.012l0.017,0.109l0.106,0.031
				c0,0,0.034,0.081,0.051,0.143c0.011,0.064,0.034,0.064,0.045,0.145c0.017,0.077,0.017,0.238,0.017,0.238s-0.028,0.08-0.079,0.08
				c-0.045,0-0.112-0.046-0.112-0.046l0.034-0.195l-0.034-0.06L37.431,39.04z"/>
			<path fill="#231F20" d="M37.843,38.975l0.191-0.013l0.078-0.066c0,0,0.062-0.112-0.017-0.112s-0.157-0.017-0.157-0.017
				l-0.126-0.063l-0.163-0.047c0,0-0.141,0.095-0.062,0.127l0.051,0.112l0.064,0.126L37.843,38.975z"/>
			<polygon fill="#231F20" points="39.767,38.863 39.91,38.768 39.865,38.72 39.767,38.704 39.657,38.704 39.593,38.784 
				39.657,38.927 			"/>
			<polygon fill="#231F20" points="40.791,38.594 40.791,38.449 40.751,38.386 40.611,38.435 40.578,38.53 40.695,38.607 			"/>
			<polygon fill="#231F20" points="40.566,38.752 40.448,38.72 40.465,38.607 40.549,38.626 40.622,38.657 			"/>
			<path fill="#231F20" d="M23.3,39.153c0,0,2.364-2.028,4.202-2.983l0.146,0.07l0.118,0.024l0.168-0.049l0.213-0.092l0.168-0.048
				l0.095-0.098l0.143-0.048l0.095-0.097l0.188-0.047l0.079,0.026l0.112-0.026l0.171-0.022l0.166-0.07l0.286-0.094h0.146
				l-0.286,0.213l-0.096,0.143l-0.19,0.073h-0.166l-0.126,0.118l-0.112,0.07l-0.219,0.143l-0.118,0.097l-0.168-0.07l-0.168,0.095
				l-0.14,0.118l-0.098-0.025l-0.115,0.168h-0.196c0,0-0.095-0.047-0.146,0.024c-0.045,0.076-0.045,0.289-0.045,0.289h0.261h0.193
				l-0.238,0.094l-0.191,0.166h-0.193c0,0-0.191,0-0.213,0.073c-0.022,0.073-0.118,0.214-0.118,0.214l-0.286,0.121h-0.073
				l-0.286,0.145l-0.121,0.189l-0.191,0.071l-0.143,0.168l-0.168,0.166l-0.118,0.167l-0.028-0.14l-0.112-0.122l-0.076,0.122v0.14
				l-0.19,0.143l-0.096,0.24l-0.193,0.073l-0.236,0.168h-0.121l-0.07-0.123v-0.166l0.07-0.192l0.143-0.143l0.022-0.14l0.051-0.095
				l-0.124-0.145l-0.067,0.118c0,0,0.05,0.073-0.073,0.168c-0.124,0.094-0.238,0.167-0.238,0.167l-0.166,0.022l-0.101,0.098
				l-0.096,0.142l-0.235,0.143l-0.118,0.214l-0.191,0.048L23.3,39.153z"/>
			<polygon fill="#231F20" points="22.997,39.759 23.064,39.589 23.235,39.519 23.235,39.783 23.235,39.927 23.092,39.997 			"/>
			<path fill="#231F20" d="M23.188,40.335l0.022-0.143l0.121-0.216l0.07-0.118l0.07-0.168l0.241-0.094c0,0,0.143-0.073,0.239-0.095
				c0.092-0.024,0.311-0.122,0.311-0.122l0.191-0.046l-0.05,0.117l-0.236,0.122l-0.166,0.143l-0.07,0.218l-0.126,0.165l-0.258,0.263
				l-0.264,0.073L23.188,40.335z"/>
			<path fill="#231F20" d="M27.274,38.758l0.045-0.167l0.171-0.143l0.166-0.122l0.168-0.143l0.143-0.118l0.264-0.122l0.146-0.143
				h0.185h0.174v-0.14l0.21-0.121l0.238-0.048c0,0,0.022-0.074,0.096-0.097c0.073-0.022,0.286-0.118,0.286-0.118l0.266-0.073h0.236
				c0,0-0.07,0.024,0.076,0.024c0.14,0,0.163-0.024,0.238-0.024c0.07,0,0.093-0.022,0.191-0.022c0.095,0,0.261-0.025,0.261-0.025
				s-0.07-0.145,0-0.189c0.07-0.046,0.236-0.098,0.236-0.098s0.073,0.098,0.174,0.07c0.09-0.018,0.07-0.118,0.14-0.118
				s0.118-0.14,0.118-0.14s0-0.095,0.143-0.095s0.479,0,0.479,0l0.191-0.025l0.168-0.097l0.521-0.166l0.191-0.048l0.171-0.169
				l0.168-0.069l0.07-0.241l0.118-0.118h0.213l0.157-0.038l0.135-0.034l0.045,0.146l0.14-0.17c0,0,0.025-0.023,0.121-0.023
				c0.098,0,0.219,0,0.219,0l0.07,0.119c0,0-0.05,0.144,0.025,0.167c0.07,0.022,0.236,0.048,0.236,0.048l0.171-0.097l0.163,0.097
				l0.191,0.093l0.235,0.052c0,0,0.196,0.095,0,0.095c-0.185,0-0.21,0.143-0.21,0.143l0.12,0.166h0.264l0.168,0.048l0.143,0.145
				l0.188,0.095l-0.14,0.095l-0.146-0.073l-0.045,0.195l-0.095,0.091l-0.124-0.073l-0.163-0.118l-0.076,0.1l0.05,0.091l-0.267,0.028
				l0.028,0.213h0.188h0.19l0.143,0.024v0.118l-0.219,0.052h-0.258h-0.191l-0.073,0.02l-0.213,0.073l-0.381,0.047l-0.219,0.093
				l-0.14,0.028l-0.022,0.192l-0.118,0.095l-0.096-0.073l-0.101-0.048h-0.07l-0.216,0.069l-0.096,0.192l-0.098,0.048l-0.092-0.022
				l-0.334,0.142c0,0,0.121,0.121-0.025,0.121c-0.146,0-0.045-0.073-0.146,0c-0.09,0.073-0.185,0.118-0.185,0.118l-0.146-0.19
				l-0.067-0.094l-0.05,0.094c0,0-0.051,0.118-0.121,0.118c-0.07,0-0.216-0.045-0.216-0.045l-0.143,0.381
				c0,0-0.092-0.046-0.115,0.024c-0.028,0.074-0.286,0.145-0.286,0.145s0.045-0.094,0.045-0.168c0-0.07,0.022-0.213,0.022-0.213
				h-0.143l-0.166-0.051l-0.095,0.121l0.19,0.143v0.216c0,0-0.146,0.046-0.213,0.046c-0.079,0-0.241,0-0.241,0l-0.356-0.022
				l-0.146-0.071l-0.166-0.168l-0.022-0.166l-0.191,0.141h-0.292l-0.166,0.049H29.47l-0.163-0.024v-0.095l-0.124-0.07l-0.283-0.023
				l-0.146-0.12l-0.143,0.166h-0.141l-0.19,0.118h-0.196l-0.191,0.025c0,0,0,0.119-0.095,0.119c-0.096,0-0.449,0.143-0.449,0.143
				l-0.219,0.145l-0.118-0.025l-0.073-0.094l0.168-0.168L27.274,38.758z"/>
			<path fill="#231F20" d="M28.929,36.486l0.146-0.093l0.239-0.097l0.118-0.171l0.213-0.072l0.118-0.073l0.241-0.075l-0.022-0.649
				l0.479-0.178l0.312-0.222c0,0,0.224,0.234,0.224,0.306c0,0.072,0.177,0.177,0.177,0.177l-0.286,0.3l0.16-0.004h0.146h0.191
				l0.146-0.025l0.163-0.169c0,0,0-0.07,0.073-0.07c0.073,0,0.213-0.002,0.213-0.002s0.146,0.023,0.19-0.049
				c0.051-0.071-0.095-0.118,0.121-0.118c0.216,0,0.356-0.004,0.356-0.004l0.045-0.217l-0.331,0.004l-0.314,0.002h-0.191v-0.094
				h-0.115l-0.238,0.003l-0.267,0.074l-0.14-0.05l0.09-0.12l0.193-0.07c0,0,0.146-0.073,0.213-0.073
				c0.079,0,0.168-0.053,0.168-0.053l0.045-0.094v-0.167c0,0,4.773-2.084,11.757-0.891l0.685,0.118l-0.073,0.07l-0.264-0.067
				l-0.166,0.093l-0.191,0.052h-0.216h-0.238h-0.216l-0.19,0.003l-0.191-0.018l-0.238-0.099l-0.216-0.068l-0.101-0.022l-0.334-0.096
				l-0.28,0.003h-0.334l-0.336-0.113l-0.432,0.001l-0.314-0.092l-0.449-0.021l-0.455,0.003l-0.359,0.001l-0.241,0.049l-0.334,0.003
				c0,0-0.02,0.052-0.165,0.052c-0.141,0-0.337,0-0.337,0s-0.235,0.024-0.309,0.024c-0.07,0.003-0.381,0.007-0.381,0.007
				l-0.244,0.07l0.244,0.022l0.241,0.094l-0.025,0.192l-0.19,0.049L36.6,33.735c0,0-0.067-0.047-0.168,0.006
				c-0.09,0.046-0.236,0.07-0.236,0.07l-0.14,0.192l-0.171,0.001l-0.283-0.043l-0.19-0.048L35.1,33.917l0.14-0.17l0.334-0.119
				l0.311-0.028l0.356-0.095l0.025-0.101l-0.236,0.004l-0.384,0.073l-0.267,0.026l-0.185,0.145l-0.286,0.097l-0.19,0.098h-0.289
				l-0.235,0.075l-0.096,0.074l-0.067,0.029l-0.101,0.041l0.283,0.025l0.076,0.094l-0.073,0.167l-0.143,0.024h-0.236l-0.143,0.004
				l-0.264,0.073h-0.19l-0.022,0.143l-0.455,0.052c0,0-0.146,0.097,0.028,0.097c0.163-0.001,0.306,0.068,0.306,0.068l0.333-0.098
				l0.146-0.025l0.306-0.051c0,0,0.05-0.07,0.171-0.07c0.118,0,0.163-0.023,0.19,0.048c0.022,0.072,0.118,0.142,0.118,0.142
				l-0.331,0.025c0,0-0.079-0.122-0.096-0.052c-0.022,0.077-0.073,0.219-0.073,0.219s0.073,0.146-0.022,0.146
				s-0.289,0.073-0.289,0.073h-0.16l-0.241,0.168l-0.166,0.048l-0.524,0.149l-0.191,0.047l-0.261,0.121c0,0-0.143,0.121-0.21,0.122
				c-0.079,0-0.314,0.025-0.314,0.025l-0.196,0.024l-0.261,0.1l-0.261,0.263l-0.166,0.219c0,0-0.121,0.046-0.188,0.07
				c-0.073,0.024-0.266,0.048-0.266,0.048l-0.191-0.019v-0.122l0.286-0.168l0.076-0.214l-0.241,0.047l-0.19,0.192l-0.309,0.192
				l-0.241,0.146l-0.141,0.001l0.21-0.288l-0.311,0.145H28.929z"/>
			<polygon fill="#231F20" points="34.339,35.298 34.53,35.155 34.625,35.036 34.816,35.015 35.029,34.914 35.273,34.893 
				35.195,35.084 35.004,35.084 34.909,35.249 34.699,35.346 34.48,35.393 			"/>
			<path fill="#231F20" d="M34.788,35.441l0.264-0.095l0.101-0.118l0.191-0.122c0,0,0.166-0.143,0.14,0.049
				c-0.022,0.191,0.05,0.216,0.05,0.216l0.191-0.025h0.095l0.168-0.025l0.025-0.166l0.16-0.049l0.076,0.07h0.216
				c0,0,0.07-0.021,0.146-0.021c0.067,0,0.191,0.021,0.191,0.021l0.208,0.073l-0.14,0.169l-0.429-0.025c0,0-0.096-0.073-0.121,0
				c-0.022,0.073,0.168,0.118,0.168,0.118l0.331-0.022c0,0,0.219-0.096,0.191,0.05c-0.02,0.14-0.118,0.333-0.118,0.333
				s-0.045,0.238-0.141,0.238c-0.095,0-0.263,0.119-0.336,0.119c-0.07,0-0.19-0.095-0.19-0.095l-0.09-0.167l-0.244-0.025
				l-0.216-0.213l-0.045-0.119l-0.168,0.095l-0.213-0.073c0,0-0.12-0.093-0.196-0.093c-0.067,0-0.188,0-0.188,0L34.788,35.441z"/>
			<path fill="#231F20" d="M35.748,34.843L35.7,34.63l0.098-0.098c0,0,0.141,0,0.216,0c0.07,0,0.261,0.168,0.19,0.168
				c-0.07,0-0.244,0.052-0.244,0.052s0.073,0.045,0.053,0.116C35.989,34.943,35.748,34.843,35.748,34.843z"/>
			<polygon fill="#231F20" points="36.488,34.487 36.729,34.271 36.87,34.271 37.06,34.271 37.276,34.271 37.47,34.271 
				37.447,34.441 37.133,34.46 36.87,34.51 36.771,34.487 			"/>
			<path fill="#231F20" d="M36.466,34.869l0.095-0.095c0,0,0.07-0.021,0.14-0.021s0.264-0.03,0.264-0.03l0.168,0.096l-0.124,0.145
				l-0.258,0.023l-0.241-0.023L36.466,34.869z"/>
			<path fill="#231F20" d="M37.47,34.008l0.045-0.168l0.19-0.095c0,0,0.073-0.024,0.146,0c0.07,0.025,0.236,0.025,0.236,0.025h0.101
				v0.145c0,0-0.028,0.121-0.101,0.143c-0.07,0.024-0.191,0.024-0.261,0.024c-0.076,0-0.144,0-0.216,0c-0.067,0-0.235,0-0.235,0
				L37.47,34.008z"/>
		</g>
	</g>
	<path fill="#FFFFFF" d="M53.844,61.789c18.961,3.434,35.245,1.189,36.367-5.009c0.46-2.533-1.677-5.332-5.657-7.994
		c5.399,3.197,8.471,6.928,7.851,10.339c-1.175,6.496-15.269,9.379-31.48,6.445c-7.795-1.414-14.655-3.916-19.547-6.855
		C45.194,59.93,49.393,60.979,53.844,61.789z"/>
	<path fill="#FFFFFF" d="M48.316,53.1c16.815,3.049,31.253,1.061,32.252-4.439c0.404-2.241-1.492-4.726-5.021-7.086
		c4.79,2.834,7.511,6.144,6.967,9.165c-1.043,5.764-13.547,8.324-27.919,5.719c-6.911-1.254-12.995-3.47-17.336-6.078
		C40.639,51.453,44.364,52.385,48.316,53.1z"/>
	<path fill="#FFFFFF" d="M45.026,44.247c13.895,2.52,25.827,0.876,26.651-3.673c0.334-1.851-1.233-3.901-4.146-5.852
		c3.961,2.343,6.204,5.077,5.756,7.577c-0.867,4.76-11.194,6.875-23.075,4.72c-5.71-1.035-10.734-2.866-14.321-5.021
		C38.681,42.885,41.767,43.655,45.026,44.247z"/>
	
		<radialGradient id="SVGID_3_" cx="-2058.3062" cy="-412.3291" r="20.2936" gradientTransform="matrix(-0.8471 -0.5314 -0.5314 0.8471 -1887.231 -681.2813)" gradientUnits="userSpaceOnUse">
		<stop  offset="0" style="stop-color:#EC1C24"/>
		<stop  offset="0.503" style="stop-color:#EC1C24"/>
		<stop  offset="0.8" style="stop-color:#AB1927"/>
		<stop  offset="1" style="stop-color:#890D19"/>
	</radialGradient>
	<path fill="url(#SVGID_3_)" d="M52.529,61.223c18.963,3.438,35.242,1.197,36.363-5.007c0.458-2.532-1.677-5.329-5.654-7.991
		c5.399,3.198,8.465,6.925,7.854,10.338c-1.178,6.496-15.274,9.382-31.486,6.445c-7.792-1.416-14.65-3.915-19.544-6.857
		C43.87,59.366,48.078,60.421,52.529,61.223z"/>
	
		<radialGradient id="SVGID_4_" cx="-2046.6323" cy="-415.5469" r="17.9963" gradientTransform="matrix(-0.8471 -0.5314 -0.5314 0.8471 -1887.231 -681.2813)" gradientUnits="userSpaceOnUse">
		<stop  offset="0" style="stop-color:#EC1C24"/>
		<stop  offset="0.503" style="stop-color:#EC1C24"/>
		<stop  offset="0.8" style="stop-color:#AB1927"/>
		<stop  offset="1" style="stop-color:#890D19"/>
	</radialGradient>
	<path fill="url(#SVGID_4_)" d="M46.947,52.52c16.814,3.049,31.254,1.058,32.252-4.44c0.401-2.245-1.489-4.729-5.021-7.087
		c4.788,2.833,7.512,6.14,6.968,9.166c-1.044,5.761-13.548,8.319-27.922,5.713c-6.911-1.251-12.995-3.47-17.334-6.075
		C39.276,50.87,43.001,51.804,46.947,52.52z"/>
	
		<radialGradient id="SVGID_5_" cx="-2035.9331" cy="-419.6743" r="14.8711" gradientTransform="matrix(-0.8471 -0.5314 -0.5314 0.8471 -1887.231 -681.2813)" gradientUnits="userSpaceOnUse">
		<stop  offset="0" style="stop-color:#EC1C24"/>
		<stop  offset="0.503" style="stop-color:#EC1C24"/>
		<stop  offset="0.8" style="stop-color:#AB1927"/>
		<stop  offset="1" style="stop-color:#890D19"/>
	</radialGradient>
	<path fill="url(#SVGID_5_)" d="M43.612,43.642c13.896,2.521,25.826,0.878,26.648-3.667c0.334-1.853-1.229-3.904-4.146-5.855
		c3.955,2.344,6.207,5.073,5.756,7.575c-0.867,4.761-11.194,6.877-23.07,4.725c-5.716-1.038-10.743-2.869-14.327-5.025
		C37.268,42.283,40.35,43.053,43.612,43.642z"/>
</g>
</svg>
